<?xml version="1.0" encoding="utf-8" standalone="no"?>
<!DOCTYPE svg PUBLIC "-//W3C//DTD SVG 1.1//EN"
  "http://www.w3.org/Graphics/SVG/1.1/DTD/svg11.dtd">
<svg xmlns:xlink="http://www.w3.org/1999/xlink" width="127.559055pt" height="147.401575pt" viewBox="0 0 127.559055 147.401575" xmlns="http://www.w3.org/2000/svg" version="1.1">
 <metadata>
  <rdf:RDF xmlns:dc="http://purl.org/dc/elements/1.1/" xmlns:cc="http://creativecommons.org/ns#" xmlns:rdf="http://www.w3.org/1999/02/22-rdf-syntax-ns#">
   <cc:Work>
    <dc:type rdf:resource="http://purl.org/dc/dcmitype/StillImage"/>
    <dc:date>2026-07-22T18:08:16.920429</dc:date>
    <dc:format>image/svg+xml</dc:format>
    <dc:creator>
     <cc:Agent>
      <dc:title>Matplotlib v3.10.9, https://matplotlib.org/</dc:title>
     </cc:Agent>
    </dc:creator>
   </cc:Work>
  </rdf:RDF>
 </metadata>
 <defs>
  <style type="text/css">*{stroke-linejoin: round; stroke-linecap: butt}</style>
 </defs>
 <g id="figure_1">
  <g id="patch_1">
   <path d="M 0 147.401575 
L 127.559055 147.401575 
L 127.559055 0 
L 0 0 
z
" style="fill: #ffffff"/>
  </g>
  <g id="axes_1">
   <g id="patch_2">
    <path d="M 15.944882 131.187402 
L 114.80315 131.187402 
L 114.80315 17.688189 
L 15.944882 17.688189 
z
" style="fill: #ffffff"/>
   </g>
   <g id="line2d_1">
    <path d="M 85.632975 131.187402 
L 85.632975 17.688189 
" clip-path="url(#pb63f92cb32)" style="fill: none; stroke-dasharray: 2.22,0.96; stroke-dashoffset: 0; stroke: #000000; stroke-width: 0.6"/>
   </g>
   <g id="matplotlib.axis_1">
    <g id="xtick_1">
     <g id="line2d_2">
      <defs>
       <path id="m28a86e6ce1" d="M 0 0 
L 0 2.5 
" style="stroke: #000000; stroke-width: 0.75"/>
      </defs>
      <g>
       <use xlink:href="#m28a86e6ce1" x="45.533671" y="131.187402" style="stroke: #000000; stroke-width: 0.75"/>
      </g>
     </g>
     <g id="text_1">
      <text style="font-size: 7px; font-family: 'Nimbus Sans', 'DejaVu Sans'; text-anchor: middle" x="45.533671" y="142.290839" transform="rotate(-0 45.533671 142.290839)">−1</text>
     </g>
    </g>
    <g id="xtick_2">
     <g id="line2d_3">
      <g>
       <use xlink:href="#m28a86e6ce1" x="85.632975" y="131.187402" style="stroke: #000000; stroke-width: 0.75"/>
      </g>
     </g>
     <g id="text_2">
      <text style="font-size: 7px; font-family: 'Nimbus Sans', 'DejaVu Sans'; text-anchor: middle" x="85.632975" y="142.290839" transform="rotate(-0 85.632975 142.290839)">0</text>
     </g>
    </g>
    <g id="text_3">
     <!-- adjusted $\beta$ (95% CI) -->
     <g transform="translate(29.694016 153.97662)">
      <text>
       <tspan x="0" y="-0.875" style="font-size: 8px; font-family: 'Nimbus Sans'">a</tspan>
       <tspan x="4.447983" y="-0.875" style="font-size: 8px; font-family: 'Nimbus Sans'">d</tspan>
       <tspan x="8.895966" y="-0.875" style="font-size: 8px; font-family: 'Nimbus Sans'">j</tspan>
       <tspan x="10.671951" y="-0.875" style="font-size: 8px; font-family: 'Nimbus Sans'">u</tspan>
       <tspan x="15.119934" y="-0.875" style="font-size: 8px; font-family: 'Nimbus Sans'">s</tspan>
       <tspan x="19.119919" y="-0.875" style="font-size: 8px; font-family: 'Nimbus Sans'">t</tspan>
       <tspan x="21.343903" y="-0.875" style="font-size: 8px; font-family: 'Nimbus Sans'">e</tspan>
       <tspan x="25.791885" y="-0.875" style="font-size: 8px; font-family: 'Nimbus Sans'">d</tspan>
       <tspan x="30.239868" y="-0.875" style="font-size: 8px; font-family: 'Nimbus Sans'"> </tspan>
       <tspan x="37.569321" y="-0.875" style="font-size: 8px; font-family: 'Nimbus Sans'"> </tspan>
       <tspan x="39.793304" y="-0.875" style="font-size: 8px; font-family: 'Nimbus Sans'">(</tspan>
       <tspan x="42.457291" y="-0.875" style="font-size: 8px; font-family: 'Nimbus Sans'">9</tspan>
       <tspan x="46.905273" y="-0.875" style="font-size: 8px; font-family: 'Nimbus Sans'">5</tspan>
       <tspan x="51.353256" y="-0.875" style="font-size: 8px; font-family: 'Nimbus Sans'">%</tspan>
       <tspan x="58.46524" y="-0.875" style="font-size: 8px; font-family: 'Nimbus Sans'"> </tspan>
       <tspan x="60.689224" y="-0.875" style="font-size: 8px; font-family: 'Nimbus Sans'">C</tspan>
       <tspan x="66.46521" y="-0.875" style="font-size: 8px; font-family: 'Nimbus Sans'">I</tspan>
       <tspan x="68.689194" y="-0.875" style="font-size: 8px; font-family: 'Nimbus Sans'">)</tspan>
       <tspan x="32.463852" y="-0.875" style="font-style: oblique; font-size: 8px; font-family: 'DejaVu Sans'">β</tspan>
      </text>
     </g>
    </g>
   </g>
   <g id="matplotlib.axis_2">
    <g id="ytick_1">
     <g id="line2d_4">
      <defs>
       <path id="m48816f3974" d="M 0 0 
L -2.5 0 
" style="stroke: #000000; stroke-width: 0.75"/>
      </defs>
      <g>
       <use xlink:href="#m48816f3974" x="15.944882" y="53.911342" style="stroke: #000000; stroke-width: 0.75"/>
      </g>
     </g>
     <g id="text_4">
      <text style="font-size: 7px; font-family: 'Nimbus Sans', 'DejaVu Sans'" transform="translate(-12.217774 53.148451)">ccRCC</text>
      <text style="font-size: 7px; font-family: 'Nimbus Sans', 'DejaVu Sans'" transform="translate(-10.479806 60.798358)">(n=24)</text>
     </g>
    </g>
    <g id="ytick_2">
     <g id="line2d_5">
      <g>
       <use xlink:href="#m48816f3974" x="15.944882" y="102.208879" style="stroke: #000000; stroke-width: 0.75"/>
      </g>
     </g>
     <g id="text_5">
      <text style="font-size: 7px; font-family: 'Nimbus Sans', 'DejaVu Sans'" transform="translate(-3.670118 101.445989)">PCa</text>
      <text style="font-size: 7px; font-family: 'Nimbus Sans', 'DejaVu Sans'" transform="translate(-10.479806 109.095895)">(n=31)</text>
     </g>
    </g>
   </g>
   <g id="line2d_6">
    <path d="M 22.028468 53.911342 
L 83.680785 53.911342 
" clip-path="url(#pb63f92cb32)" style="fill: none; stroke: #0072b2; stroke-width: 1.1; stroke-linecap: square"/>
   </g>
   <g id="line2d_7">
    <path d="M 73.395674 102.208879 
L 98.073289 102.208879 
" clip-path="url(#pb63f92cb32)" style="fill: none; stroke: #e69f00; stroke-width: 1.1; stroke-linecap: square"/>
   </g>
   <g id="patch_3">
    <path d="M 15.944882 131.187402 
L 15.944882 17.688189 
" style="fill: none; stroke: #000000; stroke-width: 0.75; stroke-linejoin: miter; stroke-linecap: square"/>
   </g>
   <g id="patch_4">
    <path d="M 15.944882 131.187402 
L 114.80315 131.187402 
" style="fill: none; stroke: #000000; stroke-width: 0.75; stroke-linejoin: miter; stroke-linecap: square"/>
   </g>
   <g id="PathCollection_1">
    <defs>
     <path id="maa7bb74c10" d="M 0 2.54951 
C 0.676138 2.54951 1.324674 2.280877 1.802776 1.802776 
C 2.280877 1.324674 2.54951 0.676138 2.54951 0 
C 2.54951 -0.676138 2.280877 -1.324674 1.802776 -1.802776 
C 1.324674 -2.280877 0.676138 -2.54951 0 -2.54951 
C -0.676138 -2.54951 -1.324674 -2.280877 -1.802776 -1.802776 
C -2.280877 -1.324674 -2.54951 -0.676138 -2.54951 0 
C -2.54951 0.676138 -2.280877 1.324674 -1.802776 1.802776 
C -1.324674 2.280877 -0.676138 2.54951 0 2.54951 
z
" style="stroke: #000000; stroke-width: 0.4"/>
    </defs>
    <g clip-path="url(#pb63f92cb32)">
     <use xlink:href="#maa7bb74c10" x="52.854626" y="53.911342" style="fill: #0072b2; stroke: #000000; stroke-width: 0.4"/>
    </g>
   </g>
   <g id="text_6">
    <text style="font-weight: 700; font-size: 9px; font-family: 'Nimbus Sans', 'DejaVu Sans'; text-anchor: start" x="104.156875" y="59.091264" transform="rotate(-0 104.156875 59.091264)">*</text>
   </g>
   <g id="PathCollection_2">
    <defs>
     <path id="m780b632cac" d="M 0 2.54951 
C 0.676138 2.54951 1.324674 2.280877 1.802776 1.802776 
C 2.280877 1.324674 2.54951 0.676138 2.54951 0 
C 2.54951 -0.676138 2.280877 -1.324674 1.802776 -1.802776 
C 1.324674 -2.280877 0.676138 -2.54951 0 -2.54951 
C -0.676138 -2.54951 -1.324674 -2.280877 -1.802776 -1.802776 
C -2.280877 -1.324674 -2.54951 -0.676138 -2.54951 0 
C -2.54951 0.676138 -2.280877 1.324674 -1.802776 1.802776 
C -1.324674 2.280877 -0.676138 2.54951 0 2.54951 
z
" style="stroke: #000000; stroke-opacity: 0.55; stroke-width: 0.4"/>
    </defs>
    <g clip-path="url(#pb63f92cb32)">
     <use xlink:href="#m780b632cac" x="85.734482" y="102.208879" style="fill: #e69f00; fill-opacity: 0.55; stroke: #000000; stroke-opacity: 0.55; stroke-width: 0.4"/>
    </g>
   </g>
   <g id="text_7">
    <text style="font-size: 8px; font-family: 'Nimbus Sans', 'DejaVu Sans'; text-anchor: middle" x="65.374016" y="11.688189" transform="rotate(-0 65.374016 11.688189)">Complement C1q vs CD8 cytotoxicity</text>
   </g>
   <g id="text_8">
    <g id="patch_5">
     <path d="M 37.872126 47.641711 
L 67.837126 47.641711 
L 67.837126 39.321711 
L 37.872126 39.321711 
z
" style="fill: #ffffff"/>
    </g>
    <!-- $\beta$ = −0.82 -->
    <g transform="translate(38.847126 45.249914)">
     <text>
      <tspan x="0" y="-0.015625" style="font-style: oblique; font-size: 6.5px; font-family: 'DejaVu Sans'">β</tspan>
      <tspan x="4.148193" y="-0.015625" style="font-size: 6.5px; font-family: 'Nimbus Sans'"> </tspan>
      <tspan x="5.955185" y="-0.015625" style="font-size: 6.5px; font-family: 'Nimbus Sans'">=</tspan>
      <tspan x="9.751175" y="-0.015625" style="font-size: 6.5px; font-family: 'Nimbus Sans'"> </tspan>
      <tspan x="11.558167" y="-0.015625" style="font-size: 6.5px; font-family: 'Nimbus Sans'">−</tspan>
      <tspan x="15.354156" y="-0.015625" style="font-size: 6.5px; font-family: 'Nimbus Sans'">0</tspan>
      <tspan x="18.968155" y="-0.015625" style="font-size: 6.5px; font-family: 'Nimbus Sans'">.</tspan>
      <tspan x="20.775146" y="-0.015625" style="font-size: 6.5px; font-family: 'Nimbus Sans'">8</tspan>
      <tspan x="24.389145" y="-0.015625" style="font-size: 6.5px; font-family: 'Nimbus Sans'">2</tspan>
     </text>
    </g>
   </g>
   <g id="text_9">
    <g id="patch_6">
     <path d="M 68.931982 95.939249 
L 102.536982 95.939249 
L 102.536982 87.619249 
L 68.931982 87.619249 
z
" style="fill: #ffffff"/>
    </g>
    <!-- $\beta$ = +0.003 -->
    <g transform="translate(69.906982 93.547452)">
     <text>
      <tspan x="0" y="-0.015625" style="font-style: oblique; font-size: 6.5px; font-family: 'DejaVu Sans'">β</tspan>
      <tspan x="4.148193" y="-0.015625" style="font-size: 6.5px; font-family: 'Nimbus Sans'"> </tspan>
      <tspan x="5.955185" y="-0.015625" style="font-size: 6.5px; font-family: 'Nimbus Sans'">=</tspan>
      <tspan x="9.751175" y="-0.015625" style="font-size: 6.5px; font-family: 'Nimbus Sans'"> </tspan>
      <tspan x="11.558167" y="-0.015625" style="font-size: 6.5px; font-family: 'Nimbus Sans'">+</tspan>
      <tspan x="15.354156" y="-0.015625" style="font-size: 6.5px; font-family: 'Nimbus Sans'">0</tspan>
      <tspan x="18.968155" y="-0.015625" style="font-size: 6.5px; font-family: 'Nimbus Sans'">.</tspan>
      <tspan x="20.775146" y="-0.015625" style="font-size: 6.5px; font-family: 'Nimbus Sans'">0</tspan>
      <tspan x="24.389145" y="-0.015625" style="font-size: 6.5px; font-family: 'Nimbus Sans'">0</tspan>
      <tspan x="28.003143" y="-0.015625" style="font-size: 6.5px; font-family: 'Nimbus Sans'">3</tspan>
     </text>
    </g>
   </g>
  </g>
 </g>
 <defs>
  <clipPath id="pb63f92cb32">
   <rect x="15.944882" y="17.688189" width="98.858268" height="113.499213"/>
  </clipPath>
 </defs>
</svg>
