<?xml version="1.0" encoding="utf-8" standalone="no"?>
<!DOCTYPE svg PUBLIC "-//W3C//DTD SVG 1.1//EN"
  "http://www.w3.org/Graphics/SVG/1.1/DTD/svg11.dtd">
<svg xmlns:xlink="http://www.w3.org/1999/xlink" width="252.283465pt" height="147.401575pt" viewBox="0 0 252.283465 147.401575" xmlns="http://www.w3.org/2000/svg" version="1.1">
 <metadata>
  <rdf:RDF xmlns:dc="http://purl.org/dc/elements/1.1/" xmlns:cc="http://creativecommons.org/ns#" xmlns:rdf="http://www.w3.org/1999/02/22-rdf-syntax-ns#">
   <cc:Work>
    <dc:type rdf:resource="http://purl.org/dc/dcmitype/StillImage"/>
    <dc:date>2026-07-22T18:08:17.329272</dc:date>
    <dc:format>image/svg+xml</dc:format>
    <dc:creator>
     <cc:Agent>
      <dc:title>Matplotlib v3.10.9, https://matplotlib.org/</dc:title>
     </cc:Agent>
    </dc:creator>
   </cc:Work>
  </rdf:RDF>
 </metadata>
 <defs>
  <style type="text/css">*{stroke-linejoin: round; stroke-linecap: butt}</style>
 </defs>
 <g id="figure_1">
  <g id="patch_1">
   <path d="M 0 147.401575 
L 252.283465 147.401575 
L 252.283465 0 
L 0 0 
z
" style="fill: #ffffff"/>
  </g>
  <g id="axes_1">
   <g id="patch_2">
    <path d="M 31.535433 87.070866 
L 227.055118 87.070866 
L 227.055118 17.688189 
L 31.535433 17.688189 
z
" style="fill: #ffffff"/>
   </g>
   <g id="FillBetweenPolyCollection_1">
    <defs>
     <path id="me3e0803389" d="M 31.535433 -128.352941 
L 31.535433 -128.352941 
L 31.669259 -128.352941 
L 31.669259 -128.352941 
L 31.847694 -128.352941 
L 31.847694 -128.352941 
L 32.026128 -128.352941 
L 32.026128 -128.352941 
L 32.115345 -128.352941 
L 32.115345 -128.352941 
L 32.249171 -128.352941 
L 32.249171 -128.352941 
L 32.338389 -128.352941 
L 32.338389 -128.352941 
L 32.695258 -128.352941 
L 32.695258 -128.352941 
L 32.829084 -128.352941 
L 32.829084 -128.352941 
L 33.141344 -128.352941 
L 33.141344 -128.352941 
L 33.230562 -128.352941 
L 33.230562 -128.352941 
L 33.453605 -128.352941 
L 33.453605 -128.352941 
L 34.25656 -128.352941 
L 34.25656 -128.352941 
L 36.263949 -128.352941 
L 36.263949 -126.705193 
L 36.843862 -126.705193 
L 36.843862 -126.705193 
L 37.825252 -126.705193 
L 37.825252 -126.705193 
L 38.449773 -126.705193 
L 38.449773 -126.705193 
L 38.851251 -126.705193 
L 38.851251 -126.486805 
L 38.940468 -126.486805 
L 38.940468 -126.486805 
L 39.029685 -126.486805 
L 39.029685 -126.177203 
L 39.341946 -126.177203 
L 39.341946 -126.177203 
L 40.18951 -126.177203 
L 40.18951 -126.177203 
L 40.635596 -126.177203 
L 40.635596 -126.177203 
L 40.680205 -126.177203 
L 40.680205 -126.177203 
L 40.724814 -126.177203 
L 40.724814 -126.177203 
L 40.947857 -126.177203 
L 40.947857 -126.177203 
L 45.408721 -126.177203 
L 45.408721 -125.844391 
L 45.76559 -125.844391 
L 45.76559 -125.844391 
L 45.944025 -125.844391 
L 45.944025 -125.844391 
L 46.256285 -125.844391 
L 46.256285 -125.511464 
L 46.523937 -125.511464 
L 46.523937 -125.184224 
L 47.326893 -125.184224 
L 47.326893 -125.184224 
L 47.683762 -125.184224 
L 47.683762 -125.184224 
L 47.817588 -125.184224 
L 47.817588 -125.184224 
L 48.129849 -125.184224 
L 48.129849 -125.184224 
L 48.174457 -125.184224 
L 48.174457 -125.184224 
L 48.263674 -125.184224 
L 48.263674 -124.85058 
L 48.709761 -124.85058 
L 48.709761 -124.85058 
L 49.378891 -124.85058 
L 49.378891 -124.85058 
L 49.646542 -124.85058 
L 49.646542 -124.85058 
L 49.73576 -124.85058 
L 49.73576 -124.85058 
L 50.850976 -124.85058 
L 50.850976 -124.85058 
L 50.940193 -124.85058 
L 50.940193 -124.85058 
L 51.787757 -124.85058 
L 51.787757 -124.511014 
L 52.456887 -124.511014 
L 52.456887 -124.511014 
L 52.947582 -124.511014 
L 52.947582 -124.175396 
L 53.170625 -124.175396 
L 53.170625 -123.844808 
L 53.750538 -123.844808 
L 53.750538 -123.844808 
L 54.062798 -123.844808 
L 54.062798 -123.844808 
L 54.152015 -123.844808 
L 54.152015 -123.844808 
L 54.285841 -123.844808 
L 54.285841 -123.512931 
L 54.33045 -123.512931 
L 54.33045 -123.512931 
L 54.687319 -123.512931 
L 54.687319 -123.512931 
L 54.865754 -123.512931 
L 54.865754 -123.512931 
L 56.114796 -123.512931 
L 56.114796 -123.512931 
L 56.560882 -123.512931 
L 56.560882 -122.842419 
L 56.605491 -122.842419 
L 56.605491 -122.512641 
L 56.828534 -122.512641 
L 56.828534 -122.512641 
L 57.140795 -122.512641 
L 57.140795 -121.858394 
L 59.058966 -121.858394 
L 59.058966 -121.858394 
L 59.951139 -121.858394 
L 59.951139 -121.531611 
L 60.441834 -121.531611 
L 60.441834 -121.531611 
L 60.798703 -121.531611 
L 60.798703 -121.531611 
L 61.066355 -121.531611 
L 61.066355 -121.531611 
L 62.003137 -121.531611 
L 62.003137 -121.20177 
L 62.092354 -121.20177 
L 62.092354 -121.20177 
L 62.449223 -121.20177 
L 62.449223 -121.20177 
L 63.386005 -121.20177 
L 63.386005 -121.20177 
L 63.742874 -121.20177 
L 63.742874 -121.20177 
L 64.322786 -121.20177 
L 64.322786 -121.20177 
L 64.412003 -121.20177 
L 64.412003 -121.20177 
L 64.947307 -121.20177 
L 64.947307 -121.20177 
L 64.991916 -121.20177 
L 64.991916 -121.20177 
L 65.214959 -121.20177 
L 65.214959 -121.20177 
L 65.52722 -121.20177 
L 65.52722 -121.20177 
L 66.062523 -121.20177 
L 66.062523 -121.20177 
L 66.419392 -121.20177 
L 66.419392 -120.846608 
L 66.687044 -120.846608 
L 66.687044 -120.846608 
L 68.560607 -120.846608 
L 68.560607 -120.846608 
L 69.006694 -120.846608 
L 69.006694 -120.846608 
L 69.229737 -120.846608 
L 69.229737 -120.488077 
L 70.478779 -120.488077 
L 70.478779 -120.488077 
L 70.523388 -120.488077 
L 70.523388 -120.488077 
L 72.129299 -120.488077 
L 72.129299 -120.488077 
L 72.530777 -120.488077 
L 72.530777 -120.488077 
L 73.690601 -120.488077 
L 73.690601 -120.488077 
L 74.002862 -120.488077 
L 74.002862 -120.488077 
L 74.493557 -120.488077 
L 74.493557 -120.488077 
L 74.671991 -120.488077 
L 74.671991 -120.488077 
L 74.805817 -120.488077 
L 74.805817 -120.488077 
L 74.895035 -120.488077 
L 74.895035 -120.488077 
L 75.787208 -120.488077 
L 75.787208 -120.107204 
L 76.277903 -120.107204 
L 76.277903 -119.729847 
L 76.634772 -119.729847 
L 76.634772 -119.729847 
L 76.768598 -119.729847 
L 76.768598 -119.729847 
L 78.151466 -119.729847 
L 78.151466 -119.350787 
L 78.196074 -119.350787 
L 78.196074 -119.350787 
L 79.489725 -119.350787 
L 79.489725 -118.972284 
L 80.248072 -118.972284 
L 80.248072 -118.972284 
L 80.872593 -118.972284 
L 80.872593 -118.972284 
L 80.917202 -118.972284 
L 80.917202 -118.972284 
L 81.095636 -118.972284 
L 81.095636 -118.589105 
L 81.497114 -118.589105 
L 81.497114 -118.589105 
L 81.541723 -118.589105 
L 81.541723 -118.206161 
L 81.675549 -118.206161 
L 81.675549 -118.206161 
L 81.764766 -118.206161 
L 81.764766 -118.206161 
L 82.032418 -118.206161 
L 82.032418 -118.206161 
L 82.077026 -118.206161 
L 82.077026 -118.206161 
L 82.255461 -118.206161 
L 82.255461 -118.206161 
L 82.389287 -118.206161 
L 82.389287 -118.206161 
L 82.523113 -118.206161 
L 82.523113 -118.206161 
L 83.504503 -118.206161 
L 83.504503 -118.206161 
L 83.638329 -118.206161 
L 83.638329 -118.206161 
L 83.682937 -118.206161 
L 83.682937 -118.206161 
L 83.950589 -118.206161 
L 83.950589 -118.206161 
L 84.441284 -118.206161 
L 84.441284 -118.206161 
L 84.664328 -118.206161 
L 84.664328 -117.789906 
L 85.065805 -117.789906 
L 85.065805 -117.377016 
L 85.824152 -117.377016 
L 85.824152 -117.377016 
L 86.760934 -117.377016 
L 86.760934 -117.377016 
L 88.009976 -117.377016 
L 88.009976 -117.377016 
L 88.18841 -117.377016 
L 88.18841 -116.958118 
L 88.366845 -116.958118 
L 88.366845 -116.958118 
L 89.080583 -116.958118 
L 89.080583 -116.958118 
L 89.125192 -116.958118 
L 89.125192 -116.958118 
L 89.482061 -116.958118 
L 89.482061 -116.958118 
L 89.83893 -116.958118 
L 89.83893 -116.958118 
L 89.883539 -116.958118 
L 89.883539 -116.958118 
L 90.151191 -116.958118 
L 90.151191 -116.958118 
L 91.444841 -116.958118 
L 91.444841 -116.512776 
L 92.515449 -116.512776 
L 92.515449 -116.512776 
L 92.693883 -116.512776 
L 92.693883 -116.512776 
L 93.095361 -116.512776 
L 93.095361 -116.512776 
L 93.273796 -116.512776 
L 93.273796 -116.512776 
L 93.318405 -116.512776 
L 93.318405 -116.512776 
L 94.567447 -116.512776 
L 94.567447 -116.512776 
L 95.013533 -116.512776 
L 95.013533 -116.512776 
L 95.459619 -116.512776 
L 95.459619 -116.512776 
L 95.593445 -116.512776 
L 95.593445 -116.512776 
L 96.75327 -116.512776 
L 96.75327 -116.512776 
L 96.797879 -116.512776 
L 96.797879 -116.033503 
L 97.154748 -116.033503 
L 97.154748 -116.033503 
L 97.467008 -116.033503 
L 97.467008 -116.033503 
L 97.779269 -116.033503 
L 97.779269 -116.033503 
L 97.957703 -116.033503 
L 97.957703 -116.033503 
L 98.225355 -116.033503 
L 98.225355 -116.033503 
L 98.269964 -116.033503 
L 98.269964 -116.033503 
L 98.359181 -116.033503 
L 98.359181 -116.033503 
L 98.40379 -116.033503 
L 98.40379 -116.033503 
L 98.537616 -116.033503 
L 98.537616 -116.033503 
L 98.805268 -116.033503 
L 98.805268 -116.033503 
L 99.340571 -116.033503 
L 99.340571 -116.033503 
L 99.563615 -116.033503 
L 99.563615 -116.033503 
L 99.697441 -116.033503 
L 99.697441 -116.033503 
L 99.831266 -116.033503 
L 99.831266 -116.033503 
L 100.768048 -116.033503 
L 100.768048 -116.033503 
L 101.124917 -116.033503 
L 101.124917 -116.033503 
L 102.418568 -116.033503 
L 102.418568 -115.474061 
L 102.463176 -115.474061 
L 102.463176 -114.921462 
L 102.820046 -114.921462 
L 102.820046 -114.374995 
L 103.846044 -114.374995 
L 103.846044 -114.374995 
L 103.97987 -114.374995 
L 103.97987 -114.374995 
L 104.024479 -114.374995 
L 104.024479 -113.82319 
L 104.336739 -113.82319 
L 104.336739 -113.82319 
L 105.853433 -113.82319 
L 105.853433 -113.82319 
L 106.031868 -113.82319 
L 106.031868 -113.82319 
L 108.663778 -113.82319 
L 108.663778 -113.82319 
L 108.752995 -113.82319 
L 108.752995 -113.82319 
L 109.823603 -113.82319 
L 109.823603 -113.82319 
L 110.002037 -113.82319 
L 110.002037 -113.82319 
L 110.89421 -113.82319 
L 110.89421 -113.82319 
L 111.161862 -113.82319 
L 111.161862 -113.82319 
L 111.251079 -113.82319 
L 111.251079 -113.82319 
L 111.340297 -113.82319 
L 111.340297 -113.82319 
L 111.518731 -113.82319 
L 111.518731 -113.82319 
L 111.56334 -113.82319 
L 111.56334 -113.82319 
L 113.749163 -113.82319 
L 113.749163 -113.82319 
L 114.239858 -113.82319 
L 114.239858 -113.82319 
L 114.596728 -113.82319 
L 114.596728 -113.82319 
L 114.998205 -113.82319 
L 114.998205 -113.82319 
L 115.355074 -113.82319 
L 115.355074 -113.82319 
L 115.622726 -113.82319 
L 115.622726 -113.82319 
L 115.667335 -113.82319 
L 115.667335 -113.82319 
L 115.756552 -113.82319 
L 115.756552 -113.82319 
L 115.801161 -113.82319 
L 115.801161 -113.82319 
L 116.514899 -113.82319 
L 116.514899 -113.82319 
L 116.82716 -113.82319 
L 116.82716 -113.115019 
L 117.540898 -113.115019 
L 117.540898 -113.115019 
L 117.585507 -113.115019 
L 117.585507 -113.115019 
L 117.853158 -113.115019 
L 117.853158 -113.115019 
L 118.611505 -113.115019 
L 118.611505 -113.115019 
L 118.745331 -113.115019 
L 118.745331 -113.115019 
L 119.146809 -113.115019 
L 119.146809 -112.35037 
L 119.860547 -112.35037 
L 119.860547 -111.598723 
L 120.44046 -111.598723 
L 120.44046 -111.598723 
L 120.618894 -111.598723 
L 120.618894 -111.598723 
L 120.931155 -111.598723 
L 120.931155 -111.598723 
L 121.511067 -111.598723 
L 121.511067 -111.598723 
L 123.741499 -111.598723 
L 123.741499 -111.598723 
L 124.321412 -111.598723 
L 124.321412 -111.598723 
L 124.633672 -111.598723 
L 124.633672 -111.598723 
L 124.767498 -111.598723 
L 124.767498 -110.766664 
L 127.444017 -110.766664 
L 127.444017 -110.766664 
L 129.228363 -110.766664 
L 129.228363 -109.936261 
L 130.031318 -109.936261 
L 130.031318 -109.936261 
L 130.834274 -109.936261 
L 130.834274 -109.936261 
L 131.726447 -109.936261 
L 131.726447 -109.936261 
L 132.484794 -109.936261 
L 132.484794 -109.936261 
L 132.797054 -109.936261 
L 132.797054 -109.936261 
L 132.841663 -109.936261 
L 132.841663 -109.936261 
L 132.975489 -109.936261 
L 132.975489 -109.936261 
L 133.376966 -109.936261 
L 133.376966 -109.936261 
L 134.090705 -109.936261 
L 134.090705 -109.00223 
L 136.053485 -109.00223 
L 136.053485 -108.085976 
L 136.856441 -108.085976 
L 136.856441 -108.085976 
L 137.347136 -108.085976 
L 137.347136 -108.085976 
L 137.614788 -108.085976 
L 137.614788 -108.085976 
L 139.131482 -108.085976 
L 139.131482 -108.085976 
L 139.443742 -108.085976 
L 139.443742 -107.115721 
L 139.577568 -107.115721 
L 139.577568 -107.115721 
L 139.934437 -107.115721 
L 139.934437 -107.115721 
L 140.335915 -107.115721 
L 140.335915 -107.115721 
L 141.005045 -107.115721 
L 141.005045 -106.083091 
L 141.317305 -106.083091 
L 141.317305 -106.083091 
L 141.718783 -106.083091 
L 141.718783 -106.083091 
L 142.566347 -106.083091 
L 142.566347 -106.083091 
L 143.235477 -106.083091 
L 143.235477 -106.083091 
L 143.413911 -106.083091 
L 143.413911 -106.083091 
L 144.43991 -106.083091 
L 144.43991 -106.083091 
L 145.376692 -106.083091 
L 145.376692 -106.083091 
L 145.465909 -106.083091 
L 145.465909 -106.083091 
L 145.911995 -106.083091 
L 145.911995 -103.682932 
L 147.919384 -103.682932 
L 147.919384 -103.682932 
L 148.856166 -103.682932 
L 148.856166 -103.682932 
L 150.194425 -103.682932 
L 150.194425 -103.682932 
L 151.443467 -103.682932 
L 151.443467 -103.682932 
L 152.960161 -103.682932 
L 152.960161 -103.682932 
L 154.030768 -103.682932 
L 154.030768 -103.682932 
L 154.387638 -103.682932 
L 154.387638 -103.682932 
L 155.63668 -103.682932 
L 155.63668 -103.682932 
L 155.94894 -103.682932 
L 155.94894 -103.682932 
L 156.395027 -103.682932 
L 156.395027 -103.682932 
L 157.777895 -103.682932 
L 157.777895 -100.106928 
L 159.339197 -100.106928 
L 159.339197 -100.106928 
L 159.473023 -100.106928 
L 159.473023 -100.106928 
L 159.696066 -100.106928 
L 159.696066 -100.106928 
L 163.755453 -100.106928 
L 163.755453 -100.106928 
L 168.662404 -100.106928 
L 168.662404 -100.106928 
L 174.506136 -100.106928 
L 174.506136 -100.106928 
L 175.264483 -100.106928 
L 175.264483 -100.106928 
L 175.576743 -100.106928 
L 175.576743 -100.106928 
L 177.271872 -100.106928 
L 177.271872 -100.106928 
L 178.833174 -100.106928 
L 178.833174 -100.106928 
L 179.992999 -100.106928 
L 179.992999 -100.106928 
L 180.126825 -100.106928 
L 180.126825 -100.106928 
L 180.572911 -100.106928 
L 180.572911 -100.106928 
L 182.178823 -100.106928 
L 182.178823 -100.106928 
L 182.847952 -100.106928 
L 182.847952 -100.106928 
L 183.606299 -100.106928 
L 183.606299 -100.106928 
L 184.587689 -100.106928 
L 184.587689 -100.106928 
L 185.479862 -100.106928 
L 185.479862 -100.106928 
L 186.773513 -100.106928 
L 186.773513 -100.106928 
L 187.576468 -100.106928 
L 187.576468 -100.106928 
L 191.368203 -100.106928 
L 191.368203 -100.106928 
L 193.866287 -100.106928 
L 193.866287 -100.106928 
L 197.836457 -100.106928 
L 197.836457 -100.106928 
L 198.193326 -100.106928 
L 198.193326 -100.106928 
L 202.877233 -100.106928 
L 202.877233 -100.106928 
L 208.810183 -100.106928 
L 208.810183 -100.106928 
L 209.390095 -100.106928 
L 209.390095 -100.106928 
L 209.479313 -100.106928 
L 209.479313 -100.106928 
L 212.958787 -100.106928 
L 212.958787 -100.106928 
L 213.271047 -100.106928 
L 213.271047 -100.106928 
L 233.924849 -100.106928 
L 233.924849 -100.106928 
L 233.924849 -112.519045 
L 233.924849 -112.519045 
L 233.924849 -112.519045 
L 213.271047 -112.519045 
L 213.271047 -112.519045 
L 212.958787 -112.519045 
L 212.958787 -112.519045 
L 209.479313 -112.519045 
L 209.479313 -112.519045 
L 209.390095 -112.519045 
L 209.390095 -112.519045 
L 208.810183 -112.519045 
L 208.810183 -112.519045 
L 202.877233 -112.519045 
L 202.877233 -112.519045 
L 198.193326 -112.519045 
L 198.193326 -112.519045 
L 197.836457 -112.519045 
L 197.836457 -112.519045 
L 193.866287 -112.519045 
L 193.866287 -112.519045 
L 191.368203 -112.519045 
L 191.368203 -112.519045 
L 187.576468 -112.519045 
L 187.576468 -112.519045 
L 186.773513 -112.519045 
L 186.773513 -112.519045 
L 185.479862 -112.519045 
L 185.479862 -112.519045 
L 184.587689 -112.519045 
L 184.587689 -112.519045 
L 183.606299 -112.519045 
L 183.606299 -112.519045 
L 182.847952 -112.519045 
L 182.847952 -112.519045 
L 182.178823 -112.519045 
L 182.178823 -112.519045 
L 180.572911 -112.519045 
L 180.572911 -112.519045 
L 180.126825 -112.519045 
L 180.126825 -112.519045 
L 179.992999 -112.519045 
L 179.992999 -112.519045 
L 178.833174 -112.519045 
L 178.833174 -112.519045 
L 177.271872 -112.519045 
L 177.271872 -112.519045 
L 175.576743 -112.519045 
L 175.576743 -112.519045 
L 175.264483 -112.519045 
L 175.264483 -112.519045 
L 174.506136 -112.519045 
L 174.506136 -112.519045 
L 168.662404 -112.519045 
L 168.662404 -112.519045 
L 163.755453 -112.519045 
L 163.755453 -112.519045 
L 159.696066 -112.519045 
L 159.696066 -112.519045 
L 159.473023 -112.519045 
L 159.473023 -112.519045 
L 159.339197 -112.519045 
L 159.339197 -112.519045 
L 157.777895 -112.519045 
L 157.777895 -114.406852 
L 156.395027 -114.406852 
L 156.395027 -114.406852 
L 155.94894 -114.406852 
L 155.94894 -114.406852 
L 155.63668 -114.406852 
L 155.63668 -114.406852 
L 154.387638 -114.406852 
L 154.387638 -114.406852 
L 154.030768 -114.406852 
L 154.030768 -114.406852 
L 152.960161 -114.406852 
L 152.960161 -114.406852 
L 151.443467 -114.406852 
L 151.443467 -114.406852 
L 150.194425 -114.406852 
L 150.194425 -114.406852 
L 148.856166 -114.406852 
L 148.856166 -114.406852 
L 147.919384 -114.406852 
L 147.919384 -114.406852 
L 145.911995 -114.406852 
L 145.911995 -115.854671 
L 145.465909 -115.854671 
L 145.465909 -115.854671 
L 145.376692 -115.854671 
L 145.376692 -115.854671 
L 144.43991 -115.854671 
L 144.43991 -115.854671 
L 143.413911 -115.854671 
L 143.413911 -115.854671 
L 143.235477 -115.854671 
L 143.235477 -115.854671 
L 142.566347 -115.854671 
L 142.566347 -115.854671 
L 141.718783 -115.854671 
L 141.718783 -115.854671 
L 141.317305 -115.854671 
L 141.317305 -115.854671 
L 141.005045 -115.854671 
L 141.005045 -116.495224 
L 140.335915 -116.495224 
L 140.335915 -116.495224 
L 139.934437 -116.495224 
L 139.934437 -116.495224 
L 139.577568 -116.495224 
L 139.577568 -116.495224 
L 139.443742 -116.495224 
L 139.443742 -117.098956 
L 139.131482 -117.098956 
L 139.131482 -117.098956 
L 137.614788 -117.098956 
L 137.614788 -117.098956 
L 137.347136 -117.098956 
L 137.347136 -117.098956 
L 136.856441 -117.098956 
L 136.856441 -117.098956 
L 136.053485 -117.098956 
L 136.053485 -117.669982 
L 134.090705 -117.669982 
L 134.090705 -118.231099 
L 133.376966 -118.231099 
L 133.376966 -118.231099 
L 132.975489 -118.231099 
L 132.975489 -118.231099 
L 132.841663 -118.231099 
L 132.841663 -118.231099 
L 132.797054 -118.231099 
L 132.797054 -118.231099 
L 132.484794 -118.231099 
L 132.484794 -118.231099 
L 131.726447 -118.231099 
L 131.726447 -118.231099 
L 130.834274 -118.231099 
L 130.834274 -118.231099 
L 130.031318 -118.231099 
L 130.031318 -118.231099 
L 129.228363 -118.231099 
L 129.228363 -118.745549 
L 127.444017 -118.745549 
L 127.444017 -118.745549 
L 124.767498 -118.745549 
L 124.767498 -119.247591 
L 124.633672 -119.247591 
L 124.633672 -119.247591 
L 124.321412 -119.247591 
L 124.321412 -119.247591 
L 123.741499 -119.247591 
L 123.741499 -119.247591 
L 121.511067 -119.247591 
L 121.511067 -119.247591 
L 120.931155 -119.247591 
L 120.931155 -119.247591 
L 120.618894 -119.247591 
L 120.618894 -119.247591 
L 120.44046 -119.247591 
L 120.44046 -119.247591 
L 119.860547 -119.247591 
L 119.860547 -119.71202 
L 119.146809 -119.71202 
L 119.146809 -120.169298 
L 118.745331 -120.169298 
L 118.745331 -120.169298 
L 118.611505 -120.169298 
L 118.611505 -120.169298 
L 117.853158 -120.169298 
L 117.853158 -120.169298 
L 117.585507 -120.169298 
L 117.585507 -120.169298 
L 117.540898 -120.169298 
L 117.540898 -120.169298 
L 116.82716 -120.169298 
L 116.82716 -120.597819 
L 116.514899 -120.597819 
L 116.514899 -120.597819 
L 115.801161 -120.597819 
L 115.801161 -120.597819 
L 115.756552 -120.597819 
L 115.756552 -120.597819 
L 115.667335 -120.597819 
L 115.667335 -120.597819 
L 115.622726 -120.597819 
L 115.622726 -120.597819 
L 115.355074 -120.597819 
L 115.355074 -120.597819 
L 114.998205 -120.597819 
L 114.998205 -120.597819 
L 114.596728 -120.597819 
L 114.596728 -120.597819 
L 114.239858 -120.597819 
L 114.239858 -120.597819 
L 113.749163 -120.597819 
L 113.749163 -120.597819 
L 111.56334 -120.597819 
L 111.56334 -120.597819 
L 111.518731 -120.597819 
L 111.518731 -120.597819 
L 111.340297 -120.597819 
L 111.340297 -120.597819 
L 111.251079 -120.597819 
L 111.251079 -120.597819 
L 111.161862 -120.597819 
L 111.161862 -120.597819 
L 110.89421 -120.597819 
L 110.89421 -120.597819 
L 110.002037 -120.597819 
L 110.002037 -120.597819 
L 109.823603 -120.597819 
L 109.823603 -120.597819 
L 108.752995 -120.597819 
L 108.752995 -120.597819 
L 108.663778 -120.597819 
L 108.663778 -120.597819 
L 106.031868 -120.597819 
L 106.031868 -120.597819 
L 105.853433 -120.597819 
L 105.853433 -120.597819 
L 104.336739 -120.597819 
L 104.336739 -120.597819 
L 104.024479 -120.597819 
L 104.024479 -120.963537 
L 103.97987 -120.963537 
L 103.97987 -120.963537 
L 103.846044 -120.963537 
L 103.846044 -120.963537 
L 102.820046 -120.963537 
L 102.820046 -121.321628 
L 102.463176 -121.321628 
L 102.463176 -121.676184 
L 102.418568 -121.676184 
L 102.418568 -122.02689 
L 101.124917 -122.02689 
L 101.124917 -122.02689 
L 100.768048 -122.02689 
L 100.768048 -122.02689 
L 99.831266 -122.02689 
L 99.831266 -122.02689 
L 99.697441 -122.02689 
L 99.697441 -122.02689 
L 99.563615 -122.02689 
L 99.563615 -122.02689 
L 99.340571 -122.02689 
L 99.340571 -122.02689 
L 98.805268 -122.02689 
L 98.805268 -122.02689 
L 98.537616 -122.02689 
L 98.537616 -122.02689 
L 98.40379 -122.02689 
L 98.40379 -122.02689 
L 98.359181 -122.02689 
L 98.359181 -122.02689 
L 98.269964 -122.02689 
L 98.269964 -122.02689 
L 98.225355 -122.02689 
L 98.225355 -122.02689 
L 97.957703 -122.02689 
L 97.957703 -122.02689 
L 97.779269 -122.02689 
L 97.779269 -122.02689 
L 97.467008 -122.02689 
L 97.467008 -122.02689 
L 97.154748 -122.02689 
L 97.154748 -122.02689 
L 96.797879 -122.02689 
L 96.797879 -122.342392 
L 96.75327 -122.342392 
L 96.75327 -122.342392 
L 95.593445 -122.342392 
L 95.593445 -122.342392 
L 95.459619 -122.342392 
L 95.459619 -122.342392 
L 95.013533 -122.342392 
L 95.013533 -122.342392 
L 94.567447 -122.342392 
L 94.567447 -122.342392 
L 93.318405 -122.342392 
L 93.318405 -122.342392 
L 93.273796 -122.342392 
L 93.273796 -122.342392 
L 93.095361 -122.342392 
L 93.095361 -122.342392 
L 92.693883 -122.342392 
L 92.693883 -122.342392 
L 92.515449 -122.342392 
L 92.515449 -122.342392 
L 91.444841 -122.342392 
L 91.444841 -122.640213 
L 90.151191 -122.640213 
L 90.151191 -122.640213 
L 89.883539 -122.640213 
L 89.883539 -122.640213 
L 89.83893 -122.640213 
L 89.83893 -122.640213 
L 89.482061 -122.640213 
L 89.482061 -122.640213 
L 89.125192 -122.640213 
L 89.125192 -122.640213 
L 89.080583 -122.640213 
L 89.080583 -122.640213 
L 88.366845 -122.640213 
L 88.366845 -122.640213 
L 88.18841 -122.640213 
L 88.18841 -122.923565 
L 88.009976 -122.923565 
L 88.009976 -122.923565 
L 86.760934 -122.923565 
L 86.760934 -122.923565 
L 85.824152 -122.923565 
L 85.824152 -122.923565 
L 85.065805 -122.923565 
L 85.065805 -123.201021 
L 84.664328 -123.201021 
L 84.664328 -123.476306 
L 84.441284 -123.476306 
L 84.441284 -123.476306 
L 83.950589 -123.476306 
L 83.950589 -123.476306 
L 83.682937 -123.476306 
L 83.682937 -123.476306 
L 83.638329 -123.476306 
L 83.638329 -123.476306 
L 83.504503 -123.476306 
L 83.504503 -123.476306 
L 82.523113 -123.476306 
L 82.523113 -123.476306 
L 82.389287 -123.476306 
L 82.389287 -123.476306 
L 82.255461 -123.476306 
L 82.255461 -123.476306 
L 82.077026 -123.476306 
L 82.077026 -123.476306 
L 82.032418 -123.476306 
L 82.032418 -123.476306 
L 81.764766 -123.476306 
L 81.764766 -123.476306 
L 81.675549 -123.476306 
L 81.675549 -123.476306 
L 81.541723 -123.476306 
L 81.541723 -123.734697 
L 81.497114 -123.734697 
L 81.497114 -123.734697 
L 81.095636 -123.734697 
L 81.095636 -123.990084 
L 80.917202 -123.990084 
L 80.917202 -123.990084 
L 80.872593 -123.990084 
L 80.872593 -123.990084 
L 80.248072 -123.990084 
L 80.248072 -123.990084 
L 79.489725 -123.990084 
L 79.489725 -124.240392 
L 78.196074 -124.240392 
L 78.196074 -124.240392 
L 78.151466 -124.240392 
L 78.151466 -124.487626 
L 76.768598 -124.487626 
L 76.768598 -124.487626 
L 76.634772 -124.487626 
L 76.634772 -124.487626 
L 76.277903 -124.487626 
L 76.277903 -124.730758 
L 75.787208 -124.730758 
L 75.787208 -124.971561 
L 74.895035 -124.971561 
L 74.895035 -124.971561 
L 74.805817 -124.971561 
L 74.805817 -124.971561 
L 74.671991 -124.971561 
L 74.671991 -124.971561 
L 74.493557 -124.971561 
L 74.493557 -124.971561 
L 74.002862 -124.971561 
L 74.002862 -124.971561 
L 73.690601 -124.971561 
L 73.690601 -124.971561 
L 72.530777 -124.971561 
L 72.530777 -124.971561 
L 72.129299 -124.971561 
L 72.129299 -124.971561 
L 70.523388 -124.971561 
L 70.523388 -124.971561 
L 70.478779 -124.971561 
L 70.478779 -124.971561 
L 69.229737 -124.971561 
L 69.229737 -125.200444 
L 69.006694 -125.200444 
L 69.006694 -125.200444 
L 68.560607 -125.200444 
L 68.560607 -125.200444 
L 66.687044 -125.200444 
L 66.687044 -125.200444 
L 66.419392 -125.200444 
L 66.419392 -125.424619 
L 66.062523 -125.424619 
L 66.062523 -125.424619 
L 65.52722 -125.424619 
L 65.52722 -125.424619 
L 65.214959 -125.424619 
L 65.214959 -125.424619 
L 64.991916 -125.424619 
L 64.991916 -125.424619 
L 64.947307 -125.424619 
L 64.947307 -125.424619 
L 64.412003 -125.424619 
L 64.412003 -125.424619 
L 64.322786 -125.424619 
L 64.322786 -125.424619 
L 63.742874 -125.424619 
L 63.742874 -125.424619 
L 63.386005 -125.424619 
L 63.386005 -125.424619 
L 62.449223 -125.424619 
L 62.449223 -125.424619 
L 62.092354 -125.424619 
L 62.092354 -125.424619 
L 62.003137 -125.424619 
L 62.003137 -125.636055 
L 61.066355 -125.636055 
L 61.066355 -125.636055 
L 60.798703 -125.636055 
L 60.798703 -125.636055 
L 60.441834 -125.636055 
L 60.441834 -125.636055 
L 59.951139 -125.636055 
L 59.951139 -125.843258 
L 59.058966 -125.843258 
L 59.058966 -125.843258 
L 57.140795 -125.843258 
L 57.140795 -126.248011 
L 56.828534 -126.248011 
L 56.828534 -126.248011 
L 56.605491 -126.248011 
L 56.605491 -126.445854 
L 56.560882 -126.445854 
L 56.560882 -126.832318 
L 56.114796 -126.832318 
L 56.114796 -126.832318 
L 54.865754 -126.832318 
L 54.865754 -126.832318 
L 54.687319 -126.832318 
L 54.687319 -126.832318 
L 54.33045 -126.832318 
L 54.33045 -126.832318 
L 54.285841 -126.832318 
L 54.285841 -127.01742 
L 54.152015 -127.01742 
L 54.152015 -127.01742 
L 54.062798 -127.01742 
L 54.062798 -127.01742 
L 53.750538 -127.01742 
L 53.750538 -127.01742 
L 53.170625 -127.01742 
L 53.170625 -127.196934 
L 52.947582 -127.196934 
L 52.947582 -127.371905 
L 52.456887 -127.371905 
L 52.456887 -127.371905 
L 51.787757 -127.371905 
L 51.787757 -127.541082 
L 50.940193 -127.541082 
L 50.940193 -127.541082 
L 50.850976 -127.541082 
L 50.850976 -127.541082 
L 49.73576 -127.541082 
L 49.73576 -127.541082 
L 49.646542 -127.541082 
L 49.646542 -127.541082 
L 49.378891 -127.541082 
L 49.378891 -127.541082 
L 48.709761 -127.541082 
L 48.709761 -127.541082 
L 48.263674 -127.541082 
L 48.263674 -127.701417 
L 48.174457 -127.701417 
L 48.174457 -127.701417 
L 48.129849 -127.701417 
L 48.129849 -127.701417 
L 47.817588 -127.701417 
L 47.817588 -127.701417 
L 47.683762 -127.701417 
L 47.683762 -127.701417 
L 47.326893 -127.701417 
L 47.326893 -127.701417 
L 46.523937 -127.701417 
L 46.523937 -127.852137 
L 46.256285 -127.852137 
L 46.256285 -127.993947 
L 45.944025 -127.993947 
L 45.944025 -127.993947 
L 45.76559 -127.993947 
L 45.76559 -127.993947 
L 45.408721 -127.993947 
L 45.408721 -128.12333 
L 40.947857 -128.12333 
L 40.947857 -128.12333 
L 40.724814 -128.12333 
L 40.724814 -128.12333 
L 40.680205 -128.12333 
L 40.680205 -128.12333 
L 40.635596 -128.12333 
L 40.635596 -128.12333 
L 40.18951 -128.12333 
L 40.18951 -128.12333 
L 39.341946 -128.12333 
L 39.341946 -128.12333 
L 39.029685 -128.12333 
L 39.029685 -128.234697 
L 38.940468 -128.234697 
L 38.940468 -128.234697 
L 38.851251 -128.234697 
L 38.851251 -128.319851 
L 38.449773 -128.319851 
L 38.449773 -128.319851 
L 37.825252 -128.319851 
L 37.825252 -128.319851 
L 36.843862 -128.319851 
L 36.843862 -128.319851 
L 36.263949 -128.319851 
L 36.263949 -128.352941 
L 34.25656 -128.352941 
L 34.25656 -128.352941 
L 33.453605 -128.352941 
L 33.453605 -128.352941 
L 33.230562 -128.352941 
L 33.230562 -128.352941 
L 33.141344 -128.352941 
L 33.141344 -128.352941 
L 32.829084 -128.352941 
L 32.829084 -128.352941 
L 32.695258 -128.352941 
L 32.695258 -128.352941 
L 32.338389 -128.352941 
L 32.338389 -128.352941 
L 32.249171 -128.352941 
L 32.249171 -128.352941 
L 32.115345 -128.352941 
L 32.115345 -128.352941 
L 32.026128 -128.352941 
L 32.026128 -128.352941 
L 31.847694 -128.352941 
L 31.847694 -128.352941 
L 31.669259 -128.352941 
L 31.669259 -128.352941 
L 31.535433 -128.352941 
z
" style="stroke: #0072b2; stroke-opacity: 0.12"/>
    </defs>
    <g clip-path="url(#p9dd033b176)">
     <use xlink:href="#me3e0803389" x="0" y="147.401575" style="fill: #0072b2; fill-opacity: 0.12; stroke: #0072b2; stroke-opacity: 0.12"/>
    </g>
   </g>
   <g id="FillBetweenPolyCollection_2">
    <defs>
     <path id="m10a676c70b" d="M 31.535433 -128.352941 
L 31.535433 -128.352941 
L 31.62465 -128.352941 
L 31.62465 -126.770006 
L 31.669259 -126.770006 
L 31.669259 -126.770006 
L 32.249171 -126.770006 
L 32.249171 -126.770006 
L 32.338389 -126.770006 
L 32.338389 -126.560593 
L 33.364387 -126.560593 
L 33.364387 -125.961014 
L 33.408996 -125.961014 
L 33.408996 -125.657204 
L 33.453605 -125.657204 
L 33.453605 -125.356678 
L 33.810474 -125.356678 
L 33.810474 -125.059824 
L 33.899691 -125.059824 
L 33.899691 -125.059824 
L 34.167343 -125.059824 
L 34.167343 -124.473498 
L 34.301169 -124.473498 
L 34.301169 -124.18508 
L 34.434995 -124.18508 
L 34.434995 -123.899419 
L 34.568821 -123.899419 
L 34.568821 -123.616251 
L 34.613429 -123.616251 
L 34.613429 -123.335349 
L 34.791864 -123.335349 
L 34.791864 -122.779584 
L 34.970299 -122.779584 
L 34.970299 -122.5044 
L 35.684037 -122.5044 
L 35.684037 -122.230835 
L 35.951689 -122.230835 
L 35.951689 -121.958774 
L 36.040906 -121.958774 
L 36.040906 -121.688116 
L 36.397775 -121.688116 
L 36.397775 -121.418769 
L 36.442384 -121.418769 
L 36.442384 -121.150653 
L 36.799253 -121.150653 
L 36.799253 -121.150653 
L 37.200731 -121.150653 
L 37.200731 -121.150653 
L 37.646817 -121.150653 
L 37.646817 -120.88123 
L 37.736035 -120.88123 
L 37.736035 -120.345754 
L 38.22673 -120.345754 
L 38.22673 -120.345754 
L 38.762033 -120.345754 
L 38.762033 -120.07835 
L 38.851251 -120.07835 
L 38.851251 -119.811937 
L 38.940468 -119.811937 
L 38.940468 -119.281889 
L 39.431163 -119.281889 
L 39.431163 -119.281889 
L 39.654206 -119.281889 
L 39.654206 -119.016947 
L 39.698815 -119.016947 
L 39.698815 -118.75161 
L 40.144901 -118.75161 
L 40.144901 -118.75161 
L 40.18951 -118.75161 
L 40.18951 -118.75161 
L 40.546379 -118.75161 
L 40.546379 -118.484606 
L 40.635596 -118.484606 
L 40.635596 -118.218416 
L 40.724814 -118.218416 
L 40.724814 -117.953005 
L 40.947857 -117.953005 
L 40.947857 -117.688341 
L 41.438552 -117.688341 
L 41.438552 -117.424395 
L 41.527769 -117.424395 
L 41.527769 -116.898546 
L 42.15229 -116.898546 
L 42.15229 -116.636594 
L 42.330725 -116.636594 
L 42.330725 -116.375261 
L 42.464551 -116.375261 
L 42.464551 -116.114525 
L 42.955246 -116.114525 
L 42.955246 -116.114525 
L 44.605766 -116.114525 
L 44.605766 -116.114525 
L 45.230287 -116.114525 
L 45.230287 -115.851872 
L 45.408721 -115.851872 
L 45.408721 -115.589804 
L 45.497939 -115.589804 
L 45.497939 -115.067348 
L 45.810199 -115.067348 
L 45.810199 -114.806926 
L 46.211677 -114.806926 
L 46.211677 -114.547022 
L 46.256285 -114.547022 
L 46.256285 -114.28762 
L 46.390111 -114.28762 
L 46.390111 -114.028707 
L 46.43472 -114.028707 
L 46.43472 -113.77027 
L 46.702372 -113.77027 
L 46.702372 -113.77027 
L 46.791589 -113.77027 
L 46.791589 -113.511028 
L 46.880806 -113.511028 
L 46.880806 -113.252248 
L 47.371502 -113.252248 
L 47.371502 -113.252248 
L 47.41611 -113.252248 
L 47.41611 -113.252248 
L 47.683762 -113.252248 
L 47.683762 -112.991338 
L 47.817588 -112.991338 
L 47.817588 -112.991338 
L 47.996023 -112.991338 
L 47.996023 -112.991338 
L 48.040631 -112.991338 
L 48.040631 -112.991338 
L 48.219066 -112.991338 
L 48.219066 -112.991338 
L 48.75437 -112.991338 
L 48.75437 -112.991338 
L 49.869586 -112.991338 
L 49.869586 -112.991338 
L 50.761758 -112.991338 
L 50.761758 -112.721434 
L 51.386279 -112.721434 
L 51.386279 -112.180372 
L 51.430888 -112.180372 
L 51.430888 -111.910605 
L 51.787757 -111.910605 
L 51.787757 -111.910605 
L 52.0108 -111.910605 
L 52.0108 -111.639903 
L 52.412278 -111.639903 
L 52.412278 -111.639903 
L 52.724539 -111.639903 
L 52.724539 -111.368247 
L 52.858365 -111.368247 
L 52.858365 -111.097081 
L 52.947582 -111.097081 
L 52.947582 -110.556168 
L 53.616712 -110.556168 
L 53.616712 -110.556168 
L 53.884364 -110.556168 
L 53.884364 -110.556168 
L 55.088797 -110.556168 
L 55.088797 -110.556168 
L 56.159404 -110.556168 
L 56.159404 -110.008203 
L 56.560882 -110.008203 
L 56.560882 -109.734925 
L 56.650099 -109.734925 
L 56.650099 -109.462102 
L 57.006969 -109.462102 
L 57.006969 -109.188196 
L 57.051577 -109.188196 
L 57.051577 -108.914736 
L 57.319229 -108.914736 
L 57.319229 -108.641714 
L 57.720707 -108.641714 
L 57.720707 -108.369121 
L 57.899141 -108.369121 
L 57.899141 -108.369121 
L 58.300619 -108.369121 
L 58.300619 -108.095388 
L 58.434445 -108.095388 
L 58.434445 -108.095388 
L 58.61288 -108.095388 
L 58.61288 -108.095388 
L 59.058966 -108.095388 
L 59.058966 -108.095388 
L 59.192792 -108.095388 
L 59.192792 -108.095388 
L 59.638879 -108.095388 
L 59.638879 -108.095388 
L 60.308008 -108.095388 
L 60.308008 -107.813984 
L 60.352617 -107.813984 
L 60.352617 -107.533045 
L 60.798703 -107.533045 
L 60.798703 -107.533045 
L 61.066355 -107.533045 
L 61.066355 -107.533045 
L 61.200181 -107.533045 
L 61.200181 -107.533045 
L 61.824702 -107.533045 
L 61.824702 -106.962338 
L 62.270789 -106.962338 
L 62.270789 -106.962338 
L 62.761484 -106.962338 
L 62.761484 -106.962338 
L 62.806092 -106.962338 
L 62.806092 -106.674167 
L 63.162961 -106.674167 
L 63.162961 -106.38648 
L 63.742874 -106.38648 
L 63.742874 -105.812524 
L 63.965917 -105.812524 
L 63.965917 -105.526237 
L 64.322786 -105.526237 
L 64.322786 -105.240399 
L 65.794871 -105.240399 
L 65.794871 -104.670042 
L 65.884089 -104.670042 
L 65.884089 -104.385508 
L 66.196349 -104.385508 
L 66.196349 -104.385508 
L 66.419392 -104.385508 
L 66.419392 -104.097673 
L 66.553218 -104.097673 
L 66.553218 -104.097673 
L 66.910087 -104.097673 
L 66.910087 -103.808371 
L 68.069912 -103.808371 
L 68.069912 -103.519508 
L 68.203738 -103.519508 
L 68.203738 -103.231078 
L 68.47139 -103.231078 
L 68.47139 -102.941124 
L 68.739042 -102.941124 
L 68.739042 -102.651603 
L 69.051302 -102.651603 
L 69.051302 -102.362506 
L 69.943475 -102.362506 
L 69.943475 -102.362506 
L 70.166518 -102.362506 
L 70.166518 -102.071829 
L 70.701822 -102.071829 
L 70.701822 -101.781576 
L 70.924865 -101.781576 
L 70.924865 -101.491742 
L 71.014083 -101.491742 
L 71.014083 -100.913307 
L 72.08469 -100.913307 
L 72.08469 -100.913307 
L 72.887646 -100.913307 
L 72.887646 -100.622627 
L 73.110689 -100.622627 
L 73.110689 -100.332356 
L 73.73521 -100.332356 
L 73.73521 -99.744516 
L 73.958253 -99.744516 
L 73.958253 -99.744516 
L 74.002862 -99.744516 
L 74.002862 -99.449026 
L 74.04747 -99.449026 
L 74.04747 -99.15396 
L 75.787208 -99.15396 
L 75.787208 -99.15396 
L 76.947032 -99.15396 
L 76.947032 -99.15396 
L 76.991641 -99.15396 
L 76.991641 -98.852454 
L 77.660771 -98.852454 
L 77.660771 -98.551402 
L 78.196074 -98.551402 
L 78.196074 -98.551402 
L 78.954421 -98.551402 
L 78.954421 -98.551402 
L 79.31129 -98.551402 
L 79.31129 -98.551402 
L 80.203463 -98.551402 
L 80.203463 -98.243546 
L 80.248072 -98.243546 
L 80.248072 -97.936174 
L 80.471115 -97.936174 
L 80.471115 -97.629281 
L 81.095636 -97.629281 
L 81.095636 -97.32286 
L 81.675549 -97.32286 
L 81.675549 -97.32286 
L 81.9432 -97.32286 
L 81.9432 -97.32286 
L 82.077026 -97.32286 
L 82.077026 -97.009144 
L 83.727546 -97.009144 
L 83.727546 -96.695937 
L 84.039807 -96.695937 
L 84.039807 -96.695937 
L 85.065805 -96.695937 
L 85.065805 -96.380528 
L 85.868761 -96.380528 
L 85.868761 -96.380528 
L 86.404065 -96.380528 
L 86.404065 -96.062868 
L 86.760934 -96.062868 
L 86.760934 -95.745733 
L 90.285017 -95.745733 
L 90.285017 -95.429116 
L 90.82032 -95.429116 
L 90.82032 -95.429116 
L 91.17719 -95.429116 
L 91.17719 -94.791711 
L 91.980145 -94.791711 
L 91.980145 -94.791711 
L 92.693883 -94.791711 
L 92.693883 -94.470843 
L 92.783101 -94.470843 
L 92.783101 -94.470843 
L 93.006144 -94.470843 
L 93.006144 -94.147489 
L 93.318405 -94.147489 
L 93.318405 -94.147489 
L 93.898317 -94.147489 
L 93.898317 -94.147489 
L 94.165969 -94.147489 
L 94.165969 -93.81843 
L 94.478229 -93.81843 
L 94.478229 -93.81843 
L 94.567447 -93.81843 
L 94.567447 -93.81843 
L 94.701272 -93.81843 
L 94.701272 -93.81843 
L 94.745881 -93.81843 
L 94.745881 -93.480056 
L 95.415011 -93.480056 
L 95.415011 -93.142323 
L 95.548837 -93.142323 
L 95.548837 -93.142323 
L 96.217966 -93.142323 
L 96.217966 -93.142323 
L 96.619444 -93.142323 
L 96.619444 -93.142323 
L 97.377791 -93.142323 
L 97.377791 -93.142323 
L 97.868486 -93.142323 
L 97.868486 -93.142323 
L 98.046921 -93.142323 
L 98.046921 -93.142323 
L 98.136138 -93.142323 
L 98.136138 -92.783264 
L 99.162137 -92.783264 
L 99.162137 -92.783264 
L 99.340571 -92.783264 
L 99.340571 -92.783264 
L 99.38518 -92.783264 
L 99.38518 -92.783264 
L 99.563615 -92.783264 
L 99.563615 -92.783264 
L 101.080308 -92.783264 
L 101.080308 -92.783264 
L 101.437178 -92.783264 
L 101.437178 -92.399864 
L 102.195525 -92.399864 
L 102.195525 -92.01746 
L 102.373959 -92.01746 
L 102.373959 -91.636036 
L 103.087697 -91.636036 
L 103.087697 -91.636036 
L 103.266132 -91.636036 
L 103.266132 -91.636036 
L 103.355349 -91.636036 
L 103.355349 -91.246217 
L 103.801436 -91.246217 
L 103.801436 -90.46968 
L 104.024479 -90.46968 
L 104.024479 -90.082934 
L 104.069088 -90.082934 
L 104.069088 -89.697185 
L 104.649 -89.697185 
L 104.649 -89.312422 
L 105.451956 -89.312422 
L 105.451956 -88.928633 
L 105.63039 -88.928633 
L 105.63039 -88.540676 
L 106.61178 -88.540676 
L 106.61178 -88.540676 
L 107.191693 -88.540676 
L 107.191693 -88.148405 
L 107.994648 -88.148405 
L 107.994648 -87.757173 
L 108.440735 -87.757173 
L 108.440735 -87.366971 
L 108.842212 -87.366971 
L 108.842212 -87.366971 
L 109.422125 -87.366971 
L 109.422125 -87.366971 
L 110.849601 -87.366971 
L 110.849601 -87.366971 
L 111.028036 -87.366971 
L 111.028036 -87.366971 
L 111.340297 -87.366971 
L 111.340297 -87.366971 
L 111.384905 -87.366971 
L 111.384905 -87.366971 
L 113.347685 -87.366971 
L 113.347685 -87.366971 
L 115.221249 -87.366971 
L 115.221249 -87.366971 
L 115.533509 -87.366971 
L 115.533509 -87.366971 
L 115.979595 -87.366971 
L 115.979595 -87.366971 
L 116.514899 -87.366971 
L 116.514899 -87.366971 
L 116.559508 -87.366971 
L 116.559508 -87.366971 
L 116.82716 -87.366971 
L 116.82716 -86.898169 
L 116.871768 -86.898169 
L 116.871768 -86.431297 
L 117.362463 -86.431297 
L 117.362463 -86.431297 
L 118.343854 -86.431297 
L 118.343854 -86.431297 
L 118.745331 -86.431297 
L 118.745331 -86.431297 
L 119.146809 -86.431297 
L 119.146809 -85.9407 
L 119.860547 -85.9407 
L 119.860547 -85.452343 
L 120.128199 -85.452343 
L 120.128199 -84.966187 
L 121.154198 -84.966187 
L 121.154198 -84.966187 
L 121.377241 -84.966187 
L 121.377241 -84.966187 
L 121.466459 -84.966187 
L 121.466459 -84.966187 
L 122.447849 -84.966187 
L 122.447849 -84.966187 
L 123.741499 -84.966187 
L 123.741499 -84.966187 
L 125.436628 -84.966187 
L 125.436628 -84.430993 
L 126.462627 -84.430993 
L 126.462627 -84.430993 
L 126.68567 -84.430993 
L 126.68567 -84.430993 
L 127.220974 -84.430993 
L 127.220974 -83.874969 
L 128.425407 -83.874969 
L 128.425407 -83.874969 
L 128.960711 -83.874969 
L 128.960711 -83.874969 
L 129.049928 -83.874969 
L 129.049928 -83.874969 
L 129.228363 -83.874969 
L 129.228363 -83.267222 
L 130.432796 -83.267222 
L 130.432796 -83.267222 
L 130.834274 -83.267222 
L 130.834274 -83.267222 
L 130.878882 -83.267222 
L 130.878882 -82.631871 
L 131.057317 -82.631871 
L 131.057317 -82.631871 
L 131.503403 -82.631871 
L 131.503403 -81.984172 
L 131.726447 -81.984172 
L 131.726447 -81.984172 
L 132.172533 -81.984172 
L 132.172533 -81.323224 
L 132.217142 -81.323224 
L 132.217142 -81.323224 
L 132.306359 -81.323224 
L 132.306359 -81.323224 
L 132.841663 -81.323224 
L 132.841663 -81.323224 
L 134.090705 -81.323224 
L 134.090705 -80.603933 
L 137.614788 -80.603933 
L 137.614788 -80.603933 
L 137.971657 -80.603933 
L 137.971657 -79.867836 
L 138.239309 -79.867836 
L 138.239309 -79.867836 
L 139.443742 -79.867836 
L 139.443742 -79.113431 
L 139.622177 -79.113431 
L 139.622177 -79.113431 
L 140.335915 -79.113431 
L 140.335915 -79.113431 
L 141.317305 -79.113431 
L 141.317305 -79.113431 
L 141.718783 -79.113431 
L 141.718783 -79.113431 
L 145.376692 -79.113431 
L 145.376692 -79.113431 
L 147.562515 -79.113431 
L 147.562515 -78.197593 
L 148.856166 -78.197593 
L 148.856166 -78.197593 
L 152.781726 -78.197593 
L 152.781726 -78.197593 
L 152.960161 -78.197593 
L 152.960161 -78.197593 
L 154.29842 -78.197593 
L 154.29842 -77.152955 
L 154.387638 -77.152955 
L 154.387638 -77.152955 
L 154.833724 -77.152955 
L 154.833724 -76.073244 
L 158.179372 -76.073244 
L 158.179372 -76.073244 
L 159.071545 -76.073244 
L 159.071545 -76.073244 
L 160.052935 -76.073244 
L 160.052935 -76.073244 
L 167.011884 -76.073244 
L 167.011884 -76.073244 
L 171.874226 -76.073244 
L 171.874226 -76.073244 
L 174.506136 -76.073244 
L 174.506136 -76.073244 
L 175.264483 -76.073244 
L 175.264483 -76.073244 
L 177.450306 -76.073244 
L 177.450306 -76.073244 
L 180.662129 -76.073244 
L 180.662129 -76.073244 
L 182.847952 -76.073244 
L 182.847952 -76.073244 
L 184.587689 -76.073244 
L 184.587689 -76.073244 
L 188.51325 -76.073244 
L 188.51325 -76.073244 
L 190.074553 -76.073244 
L 190.074553 -72.867718 
L 192.79568 -72.867718 
L 192.79568 -70.146269 
L 193.509418 -70.146269 
L 193.509418 -70.146269 
L 198.550195 -70.146269 
L 198.550195 -70.146269 
L 202.564973 -70.146269 
L 202.564973 -70.146269 
L 207.115054 -70.146269 
L 207.115054 -70.146269 
L 207.471924 -70.146269 
L 207.471924 -70.146269 
L 208.810183 -70.146269 
L 208.810183 -70.146269 
L 212.958787 -70.146269 
L 212.958787 -70.146269 
L 212.958787 -83.886059 
L 212.958787 -83.886059 
L 212.958787 -83.886059 
L 208.810183 -83.886059 
L 208.810183 -83.886059 
L 207.471924 -83.886059 
L 207.471924 -83.886059 
L 207.115054 -83.886059 
L 207.115054 -83.886059 
L 202.564973 -83.886059 
L 202.564973 -83.886059 
L 198.550195 -83.886059 
L 198.550195 -83.886059 
L 193.509418 -83.886059 
L 193.509418 -83.886059 
L 192.79568 -83.886059 
L 192.79568 -85.399411 
L 190.074553 -85.399411 
L 190.074553 -86.536482 
L 188.51325 -86.536482 
L 188.51325 -86.536482 
L 184.587689 -86.536482 
L 184.587689 -86.536482 
L 182.847952 -86.536482 
L 182.847952 -86.536482 
L 180.662129 -86.536482 
L 180.662129 -86.536482 
L 177.450306 -86.536482 
L 177.450306 -86.536482 
L 175.264483 -86.536482 
L 175.264483 -86.536482 
L 174.506136 -86.536482 
L 174.506136 -86.536482 
L 171.874226 -86.536482 
L 171.874226 -86.536482 
L 167.011884 -86.536482 
L 167.011884 -86.536482 
L 160.052935 -86.536482 
L 160.052935 -86.536482 
L 159.071545 -86.536482 
L 159.071545 -86.536482 
L 158.179372 -86.536482 
L 158.179372 -86.536482 
L 154.833724 -86.536482 
L 154.833724 -87.384356 
L 154.387638 -87.384356 
L 154.387638 -87.384356 
L 154.29842 -87.384356 
L 154.29842 -88.190382 
L 152.960161 -88.190382 
L 152.960161 -88.190382 
L 152.781726 -88.190382 
L 152.781726 -88.190382 
L 148.856166 -88.190382 
L 148.856166 -88.190382 
L 147.562515 -88.190382 
L 147.562515 -88.925409 
L 145.376692 -88.925409 
L 145.376692 -88.925409 
L 141.718783 -88.925409 
L 141.718783 -88.925409 
L 141.317305 -88.925409 
L 141.317305 -88.925409 
L 140.335915 -88.925409 
L 140.335915 -88.925409 
L 139.622177 -88.925409 
L 139.622177 -88.925409 
L 139.443742 -88.925409 
L 139.443742 -89.575275 
L 138.239309 -89.575275 
L 138.239309 -89.575275 
L 137.971657 -89.575275 
L 137.971657 -90.205353 
L 137.614788 -90.205353 
L 137.614788 -90.205353 
L 134.090705 -90.205353 
L 134.090705 -90.81713 
L 132.841663 -90.81713 
L 132.841663 -90.81713 
L 132.306359 -90.81713 
L 132.306359 -90.81713 
L 132.217142 -90.81713 
L 132.217142 -90.81713 
L 132.172533 -90.81713 
L 132.172533 -91.391233 
L 131.726447 -91.391233 
L 131.726447 -91.391233 
L 131.503403 -91.391233 
L 131.503403 -91.951074 
L 131.057317 -91.951074 
L 131.057317 -91.951074 
L 130.878882 -91.951074 
L 130.878882 -92.497542 
L 130.834274 -92.497542 
L 130.834274 -92.497542 
L 130.432796 -92.497542 
L 130.432796 -92.497542 
L 129.228363 -92.497542 
L 129.228363 -93.023242 
L 129.049928 -93.023242 
L 129.049928 -93.023242 
L 128.960711 -93.023242 
L 128.960711 -93.023242 
L 128.425407 -93.023242 
L 128.425407 -93.023242 
L 127.220974 -93.023242 
L 127.220974 -93.515569 
L 126.68567 -93.515569 
L 126.68567 -93.515569 
L 126.462627 -93.515569 
L 126.462627 -93.515569 
L 125.436628 -93.515569 
L 125.436628 -93.991775 
L 123.741499 -93.991775 
L 123.741499 -93.991775 
L 122.447849 -93.991775 
L 122.447849 -93.991775 
L 121.466459 -93.991775 
L 121.466459 -93.991775 
L 121.377241 -93.991775 
L 121.377241 -93.991775 
L 121.154198 -93.991775 
L 121.154198 -93.991775 
L 120.128199 -93.991775 
L 120.128199 -94.435537 
L 119.860547 -94.435537 
L 119.860547 -94.877558 
L 119.146809 -94.877558 
L 119.146809 -95.317815 
L 118.745331 -95.317815 
L 118.745331 -95.317815 
L 118.343854 -95.317815 
L 118.343854 -95.317815 
L 117.362463 -95.317815 
L 117.362463 -95.317815 
L 116.871768 -95.317815 
L 116.871768 -95.740875 
L 116.82716 -95.740875 
L 116.82716 -96.162411 
L 116.559508 -96.162411 
L 116.559508 -96.162411 
L 116.514899 -96.162411 
L 116.514899 -96.162411 
L 115.979595 -96.162411 
L 115.979595 -96.162411 
L 115.533509 -96.162411 
L 115.533509 -96.162411 
L 115.221249 -96.162411 
L 115.221249 -96.162411 
L 113.347685 -96.162411 
L 113.347685 -96.162411 
L 111.384905 -96.162411 
L 111.384905 -96.162411 
L 111.340297 -96.162411 
L 111.340297 -96.162411 
L 111.028036 -96.162411 
L 111.028036 -96.162411 
L 110.849601 -96.162411 
L 110.849601 -96.162411 
L 109.422125 -96.162411 
L 109.422125 -96.162411 
L 108.842212 -96.162411 
L 108.842212 -96.162411 
L 108.440735 -96.162411 
L 108.440735 -96.531623 
L 107.994648 -96.531623 
L 107.994648 -96.89999 
L 107.191693 -96.89999 
L 107.191693 -97.267505 
L 106.61178 -97.267505 
L 106.61178 -97.267505 
L 105.63039 -97.267505 
L 105.63039 -97.630616 
L 105.451956 -97.630616 
L 105.451956 -97.989468 
L 104.649 -97.989468 
L 104.649 -98.347523 
L 104.069088 -98.347523 
L 104.069088 -98.704776 
L 104.024479 -98.704776 
L 104.024479 -99.061219 
L 103.801436 -99.061219 
L 103.801436 -99.771646 
L 103.355349 -99.771646 
L 103.355349 -100.125613 
L 103.266132 -100.125613 
L 103.266132 -100.125613 
L 103.087697 -100.125613 
L 103.087697 -100.125613 
L 102.373959 -100.125613 
L 102.373959 -100.472671 
L 102.195525 -100.472671 
L 102.195525 -100.818942 
L 101.437178 -100.818942 
L 101.437178 -101.164417 
L 101.080308 -101.164417 
L 101.080308 -101.164417 
L 99.563615 -101.164417 
L 99.563615 -101.164417 
L 99.38518 -101.164417 
L 99.38518 -101.164417 
L 99.340571 -101.164417 
L 99.340571 -101.164417 
L 99.162137 -101.164417 
L 99.162137 -101.164417 
L 98.136138 -101.164417 
L 98.136138 -101.49268 
L 98.046921 -101.49268 
L 98.046921 -101.49268 
L 97.868486 -101.49268 
L 97.868486 -101.49268 
L 97.377791 -101.49268 
L 97.377791 -101.49268 
L 96.619444 -101.49268 
L 96.619444 -101.49268 
L 96.217966 -101.49268 
L 96.217966 -101.49268 
L 95.548837 -101.49268 
L 95.548837 -101.49268 
L 95.415011 -101.49268 
L 95.415011 -101.805495 
L 94.745881 -101.805495 
L 94.745881 -102.117775 
L 94.701272 -102.117775 
L 94.701272 -102.117775 
L 94.567447 -102.117775 
L 94.567447 -102.117775 
L 94.478229 -102.117775 
L 94.478229 -102.117775 
L 94.165969 -102.117775 
L 94.165969 -102.422741 
L 93.898317 -102.422741 
L 93.898317 -102.422741 
L 93.318405 -102.422741 
L 93.318405 -102.422741 
L 93.006144 -102.422741 
L 93.006144 -102.722898 
L 92.783101 -102.722898 
L 92.783101 -102.722898 
L 92.693883 -102.722898 
L 92.693883 -103.020494 
L 91.980145 -103.020494 
L 91.980145 -103.020494 
L 91.17719 -103.020494 
L 91.17719 -103.61024 
L 90.82032 -103.61024 
L 90.82032 -103.61024 
L 90.285017 -103.61024 
L 90.285017 -103.902461 
L 86.760934 -103.902461 
L 86.760934 -104.194241 
L 86.404065 -104.194241 
L 86.404065 -104.485576 
L 85.868761 -104.485576 
L 85.868761 -104.485576 
L 85.065805 -104.485576 
L 85.065805 -104.774567 
L 84.039807 -104.774567 
L 84.039807 -104.774567 
L 83.727546 -104.774567 
L 83.727546 -105.061265 
L 82.077026 -105.061265 
L 82.077026 -105.34753 
L 81.9432 -105.34753 
L 81.9432 -105.34753 
L 81.675549 -105.34753 
L 81.675549 -105.34753 
L 81.095636 -105.34753 
L 81.095636 -105.628035 
L 80.471115 -105.628035 
L 80.471115 -105.908135 
L 80.248072 -105.908135 
L 80.248072 -106.187824 
L 80.203463 -106.187824 
L 80.203463 -106.4671 
L 79.31129 -106.4671 
L 79.31129 -106.4671 
L 78.954421 -106.4671 
L 78.954421 -106.4671 
L 78.196074 -106.4671 
L 78.196074 -106.4671 
L 77.660771 -106.4671 
L 77.660771 -106.741005 
L 76.991641 -106.741005 
L 76.991641 -107.014519 
L 76.947032 -107.014519 
L 76.947032 -107.014519 
L 75.787208 -107.014519 
L 75.787208 -107.014519 
L 74.04747 -107.014519 
L 74.04747 -107.282935 
L 74.002862 -107.282935 
L 74.002862 -107.55098 
L 73.958253 -107.55098 
L 73.958253 -107.55098 
L 73.73521 -107.55098 
L 73.73521 -108.08294 
L 73.110689 -108.08294 
L 73.110689 -108.345447 
L 72.887646 -108.345447 
L 72.887646 -108.607593 
L 72.08469 -108.607593 
L 72.08469 -108.607593 
L 71.014083 -108.607593 
L 71.014083 -109.127978 
L 70.924865 -109.127978 
L 70.924865 -109.387628 
L 70.701822 -109.387628 
L 70.701822 -109.646912 
L 70.166518 -109.646912 
L 70.166518 -109.905824 
L 69.943475 -109.905824 
L 69.943475 -109.905824 
L 69.051302 -109.905824 
L 69.051302 -110.16302 
L 68.739042 -110.16302 
L 68.739042 -110.419845 
L 68.47139 -110.419845 
L 68.47139 -110.676293 
L 68.203738 -110.676293 
L 68.203738 -110.931064 
L 68.069912 -110.931064 
L 68.069912 -111.185458 
L 66.910087 -111.185458 
L 66.910087 -111.439469 
L 66.553218 -111.439469 
L 66.553218 -111.439469 
L 66.419392 -111.439469 
L 66.419392 -111.69184 
L 66.196349 -111.69184 
L 66.196349 -111.69184 
L 65.884089 -111.69184 
L 65.884089 -111.941373 
L 65.794871 -111.941373 
L 65.794871 -112.43931 
L 64.322786 -112.43931 
L 64.322786 -112.687704 
L 63.965917 -112.687704 
L 63.965917 -112.935706 
L 63.742874 -112.935706 
L 63.742874 -113.430515 
L 63.162961 -113.430515 
L 63.162961 -113.677309 
L 62.806092 -113.677309 
L 62.806092 -113.923688 
L 62.761484 -113.923688 
L 62.761484 -113.923688 
L 62.270789 -113.923688 
L 62.270789 -113.923688 
L 61.824702 -113.923688 
L 61.824702 -114.410701 
L 61.200181 -114.410701 
L 61.200181 -114.410701 
L 61.066355 -114.410701 
L 61.066355 -114.410701 
L 60.798703 -114.410701 
L 60.798703 -114.410701 
L 60.352617 -114.410701 
L 60.352617 -114.650341 
L 60.308008 -114.650341 
L 60.308008 -114.889575 
L 59.638879 -114.889575 
L 59.638879 -114.889575 
L 59.192792 -114.889575 
L 59.192792 -114.889575 
L 59.058966 -114.889575 
L 59.058966 -114.889575 
L 58.61288 -114.889575 
L 58.61288 -114.889575 
L 58.434445 -114.889575 
L 58.434445 -114.889575 
L 58.300619 -114.889575 
L 58.300619 -115.123261 
L 57.899141 -115.123261 
L 57.899141 -115.123261 
L 57.720707 -115.123261 
L 57.720707 -115.355568 
L 57.319229 -115.355568 
L 57.319229 -115.587491 
L 57.051577 -115.587491 
L 57.051577 -115.819022 
L 57.006969 -115.819022 
L 57.006969 -116.050154 
L 56.650099 -116.050154 
L 56.650099 -116.279923 
L 56.560882 -116.279923 
L 56.560882 -116.509286 
L 56.159404 -116.509286 
L 56.159404 -116.966758 
L 55.088797 -116.966758 
L 55.088797 -116.966758 
L 53.884364 -116.966758 
L 53.884364 -116.966758 
L 53.616712 -116.966758 
L 53.616712 -116.966758 
L 52.947582 -116.966758 
L 52.947582 -117.417044 
L 52.858365 -117.417044 
L 52.858365 -117.641548 
L 52.724539 -117.641548 
L 52.724539 -117.865615 
L 52.412278 -117.865615 
L 52.412278 -117.865615 
L 52.0108 -117.865615 
L 52.0108 -118.088362 
L 51.787757 -118.088362 
L 51.787757 -118.088362 
L 51.430888 -118.088362 
L 51.430888 -118.3098 
L 51.386279 -118.3098 
L 51.386279 -118.751303 
L 50.761758 -118.751303 
L 50.761758 -118.970515 
L 49.869586 -118.970515 
L 49.869586 -118.970515 
L 48.75437 -118.970515 
L 48.75437 -118.970515 
L 48.219066 -118.970515 
L 48.219066 -118.970515 
L 48.040631 -118.970515 
L 48.040631 -118.970515 
L 47.996023 -118.970515 
L 47.996023 -118.970515 
L 47.817588 -118.970515 
L 47.817588 -118.970515 
L 47.683762 -118.970515 
L 47.683762 -119.183628 
L 47.41611 -119.183628 
L 47.41611 -119.183628 
L 47.371502 -119.183628 
L 47.371502 -119.183628 
L 46.880806 -119.183628 
L 46.880806 -119.394754 
L 46.791589 -119.394754 
L 46.791589 -119.605437 
L 46.702372 -119.605437 
L 46.702372 -119.605437 
L 46.43472 -119.605437 
L 46.43472 -119.814914 
L 46.390111 -119.814914 
L 46.390111 -120.023932 
L 46.256285 -120.023932 
L 46.256285 -120.232477 
L 46.211677 -120.232477 
L 46.211677 -120.440539 
L 45.810199 -120.440539 
L 45.810199 -120.648104 
L 45.497939 -120.648104 
L 45.497939 -121.061683 
L 45.408721 -121.061683 
L 45.408721 -121.267667 
L 45.230287 -121.267667 
L 45.230287 -121.473093 
L 44.605766 -121.473093 
L 44.605766 -121.473093 
L 42.955246 -121.473093 
L 42.955246 -121.473093 
L 42.464551 -121.473093 
L 42.464551 -121.676558 
L 42.330725 -121.676558 
L 42.330725 -121.879441 
L 42.15229 -121.879441 
L 42.15229 -122.081725 
L 41.527769 -122.081725 
L 41.527769 -122.484407 
L 41.438552 -122.484407 
L 41.438552 -122.68476 
L 40.947857 -122.68476 
L 40.947857 -122.88442 
L 40.724814 -122.88442 
L 40.724814 -123.08336 
L 40.635596 -123.08336 
L 40.635596 -123.281551 
L 40.546379 -123.281551 
L 40.546379 -123.47896 
L 40.18951 -123.47896 
L 40.18951 -123.47896 
L 40.144901 -123.47896 
L 40.144901 -123.47896 
L 39.698815 -123.47896 
L 39.698815 -123.674311 
L 39.654206 -123.674311 
L 39.654206 -123.86822 
L 39.431163 -123.86822 
L 39.431163 -123.86822 
L 38.940468 -123.86822 
L 38.940468 -124.252218 
L 38.851251 -124.252218 
L 38.851251 -124.442828 
L 38.762033 -124.442828 
L 38.762033 -124.632448 
L 38.22673 -124.632448 
L 38.22673 -124.632448 
L 37.736035 -124.632448 
L 37.736035 -125.007365 
L 37.646817 -125.007365 
L 37.646817 -125.193114 
L 37.200731 -125.193114 
L 37.200731 -125.193114 
L 36.799253 -125.193114 
L 36.799253 -125.193114 
L 36.442384 -125.193114 
L 36.442384 -125.376549 
L 36.397775 -125.376549 
L 36.397775 -125.558693 
L 36.040906 -125.558693 
L 36.040906 -125.739452 
L 35.951689 -125.739452 
L 35.951689 -125.918724 
L 35.684037 -125.918724 
L 35.684037 -126.096392 
L 34.970299 -126.096392 
L 34.970299 -126.272318 
L 34.791864 -126.272318 
L 34.791864 -126.618294 
L 34.613429 -126.618294 
L 34.613429 -126.787941 
L 34.568821 -126.787941 
L 34.568821 -126.955027 
L 34.434995 -126.955027 
L 34.434995 -127.119237 
L 34.301169 -127.119237 
L 34.301169 -127.280177 
L 34.167343 -127.280177 
L 34.167343 -127.590132 
L 33.899691 -127.590132 
L 33.899691 -127.590132 
L 33.810474 -127.590132 
L 33.810474 -127.737307 
L 33.453605 -127.737307 
L 33.453605 -127.878103 
L 33.408996 -127.878103 
L 33.408996 -128.010822 
L 33.364387 -128.010822 
L 33.364387 -128.23943 
L 32.338389 -128.23943 
L 32.338389 -128.321168 
L 32.249171 -128.321168 
L 32.249171 -128.321168 
L 31.669259 -128.321168 
L 31.669259 -128.321168 
L 31.62465 -128.321168 
L 31.62465 -128.352941 
L 31.535433 -128.352941 
z
" style="stroke: #e69f00; stroke-opacity: 0.12"/>
    </defs>
    <g clip-path="url(#p9dd033b176)">
     <use xlink:href="#m10a676c70b" x="0" y="147.401575" style="fill: #e69f00; fill-opacity: 0.12; stroke: #e69f00; stroke-opacity: 0.12"/>
    </g>
   </g>
   <g id="matplotlib.axis_1">
    <g id="xtick_1">
     <g id="line2d_1">
      <defs>
       <path id="mca8ec5b209" d="M 0 0 
L 0 2.5 
" style="stroke: #000000; stroke-width: 0.75"/>
      </defs>
      <g>
       <use xlink:href="#mca8ec5b209" x="31.535433" y="87.070866" style="stroke: #000000; stroke-width: 0.75"/>
      </g>
     </g>
    </g>
    <g id="xtick_2">
     <g id="line2d_2">
      <g>
       <use xlink:href="#mca8ec5b209" x="80.415354" y="87.070866" style="stroke: #000000; stroke-width: 0.75"/>
      </g>
     </g>
    </g>
    <g id="xtick_3">
     <g id="line2d_3">
      <g>
       <use xlink:href="#mca8ec5b209" x="129.295276" y="87.070866" style="stroke: #000000; stroke-width: 0.75"/>
      </g>
     </g>
    </g>
    <g id="xtick_4">
     <g id="line2d_4">
      <g>
       <use xlink:href="#mca8ec5b209" x="178.175197" y="87.070866" style="stroke: #000000; stroke-width: 0.75"/>
      </g>
     </g>
    </g>
    <g id="xtick_5">
     <g id="line2d_5">
      <g>
       <use xlink:href="#mca8ec5b209" x="227.055118" y="87.070866" style="stroke: #000000; stroke-width: 0.75"/>
      </g>
     </g>
    </g>
   </g>
   <g id="matplotlib.axis_2">
    <g id="ytick_1">
     <g id="line2d_6">
      <defs>
       <path id="m2d009e6ba2" d="M 0 0 
L -2.5 0 
" style="stroke: #000000; stroke-width: 0.75"/>
      </defs>
      <g>
       <use xlink:href="#m2d009e6ba2" x="31.535433" y="87.070866" style="stroke: #000000; stroke-width: 0.75"/>
      </g>
     </g>
     <g id="text_1">
      <text style="font-size: 7px; font-family: 'Nimbus Sans', 'DejaVu Sans'; text-anchor: end" x="25.535433" y="89.622585" transform="rotate(-0 25.535433 89.622585)">0.0</text>
     </g>
    </g>
    <g id="ytick_2">
     <g id="line2d_7">
      <g>
       <use xlink:href="#m2d009e6ba2" x="31.535433" y="53.05975" style="stroke: #000000; stroke-width: 0.75"/>
      </g>
     </g>
     <g id="text_2">
      <text style="font-size: 7px; font-family: 'Nimbus Sans', 'DejaVu Sans'; text-anchor: end" x="25.535433" y="55.611469" transform="rotate(-0 25.535433 55.611469)">0.5</text>
     </g>
    </g>
    <g id="ytick_3">
     <g id="line2d_8">
      <g>
       <use xlink:href="#m2d009e6ba2" x="31.535433" y="19.048634" style="stroke: #000000; stroke-width: 0.75"/>
      </g>
     </g>
     <g id="text_3">
      <text style="font-size: 7px; font-family: 'Nimbus Sans', 'DejaVu Sans'; text-anchor: end" x="25.535433" y="21.600352" transform="rotate(-0 25.535433 21.600352)">1.0</text>
     </g>
    </g>
    <g id="text_4">
     <text style="font-size: 8px; font-family: 'Nimbus Sans', 'DejaVu Sans'; text-anchor: middle" x="10.062777" y="52.379528" transform="rotate(-90 10.062777 52.379528)">overall survival</text>
    </g>
   </g>
   <g id="line2d_9">
    <path d="M 31.535433 19.048634 
L 36.263949 19.048634 
L 36.263949 19.283193 
L 38.851251 19.283193 
L 38.851251 19.520213 
L 38.940468 19.520213 
L 39.029685 19.520213 
L 39.029685 19.758067 
L 45.408721 19.758067 
L 45.408721 20.001074 
L 46.256285 20.001074 
L 46.256285 20.245854 
L 46.523937 20.245854 
L 46.523937 20.490634 
L 48.263674 20.490634 
L 48.263674 20.740936 
L 51.787757 20.740936 
L 51.787757 20.997036 
L 52.947582 20.997036 
L 52.947582 21.254133 
L 53.170625 21.254133 
L 53.170625 21.511229 
L 54.285841 21.511229 
L 54.285841 21.771387 
L 54.33045 21.771387 
L 56.560882 21.771387 
L 56.605491 22.567722 
L 57.140795 22.567722 
L 57.140795 23.100806 
L 59.951139 23.100806 
L 59.951139 23.369587 
L 62.003137 23.369587 
L 62.003137 23.641815 
L 62.092354 23.641815 
L 66.419392 23.641815 
L 66.419392 23.931445 
L 69.229737 23.931445 
L 69.229737 24.225117 
L 75.787208 24.225117 
L 75.787208 24.534702 
L 76.277903 24.534702 
L 76.277903 24.844287 
L 78.151466 24.844287 
L 78.151466 25.156983 
L 78.196074 25.156983 
L 79.489725 25.156983 
L 79.489725 25.471267 
L 81.095636 25.471267 
L 81.095636 25.790436 
L 81.541723 25.790436 
L 81.541723 26.111276 
L 84.664328 26.111276 
L 84.664328 26.45568 
L 85.065805 26.45568 
L 85.065805 26.800085 
L 88.18841 26.800085 
L 88.18841 27.150496 
L 91.444841 27.150496 
L 91.444841 27.520375 
L 96.797879 27.520375 
L 96.797879 27.914749 
L 102.418568 27.914749 
L 102.463176 28.811054 
L 102.820046 28.811054 
L 102.820046 29.259207 
L 104.024479 29.259207 
L 104.024479 29.714416 
L 116.82716 29.714416 
L 116.82716 30.271275 
L 119.146809 30.271275 
L 119.146809 30.869166 
L 119.860547 30.869166 
L 119.860547 31.467056 
L 124.767498 31.467056 
L 124.767498 32.121219 
L 129.228363 32.121219 
L 129.228363 32.783262 
L 134.090705 32.783262 
L 134.090705 33.516879 
L 136.053485 33.516879 
L 136.053485 34.250495 
L 139.443742 34.250495 
L 139.443742 35.027265 
L 141.005045 35.027265 
L 141.005045 35.853354 
L 145.911995 35.853354 
L 145.911995 37.750299 
L 157.777895 37.750299 
L 157.777895 40.416276 
L 233.924849 40.416276 
L 233.924849 40.416276 
" clip-path="url(#p9dd033b176)" style="fill: none; stroke: #0072b2; stroke-width: 1.2; stroke-linecap: square"/>
   </g>
   <g id="line2d_10">
    <path d="M 31.535433 19.048634 
L 31.62465 19.048634 
L 31.62465 19.273873 
L 31.669259 19.273873 
L 32.338389 19.273873 
L 32.338389 19.501379 
L 33.364387 19.501379 
L 33.453605 20.411406 
L 33.810474 20.411406 
L 33.810474 20.638913 
L 33.899691 20.638913 
L 34.167343 20.638913 
L 34.167343 21.09549 
L 34.301169 21.09549 
L 34.301169 21.323778 
L 34.434995 21.323778 
L 34.434995 21.552067 
L 34.568821 21.552067 
L 34.613429 22.008644 
L 34.791864 22.008644 
L 34.791864 22.465221 
L 34.970299 22.465221 
L 34.970299 22.693509 
L 35.684037 22.693509 
L 35.684037 22.921798 
L 35.951689 22.921798 
L 36.040906 23.378375 
L 36.397775 23.378375 
L 36.442384 23.834952 
L 37.646817 23.834952 
L 37.736035 24.524798 
L 38.762033 24.524798 
L 38.851251 24.986393 
L 38.940468 24.986393 
L 38.940468 25.447987 
L 39.654206 25.447987 
L 39.698815 25.912195 
L 40.546379 25.912195 
L 40.635596 26.380844 
L 40.724814 26.380844 
L 40.724814 26.615168 
L 40.947857 26.615168 
L 40.947857 26.849493 
L 41.438552 26.849493 
L 41.527769 27.552466 
L 42.15229 27.552466 
L 42.15229 27.78679 
L 42.330725 27.78679 
L 42.330725 28.021115 
L 42.464551 28.021115 
L 42.464551 28.255439 
L 45.230287 28.255439 
L 45.230287 28.491646 
L 45.408721 28.491646 
L 45.497939 29.200265 
L 45.810199 29.200265 
L 45.810199 29.436472 
L 46.211677 29.436472 
L 46.256285 29.908885 
L 46.390111 29.908885 
L 46.43472 30.381298 
L 46.791589 30.381298 
L 46.880806 30.855688 
L 47.683762 30.855688 
L 47.683762 31.094901 
L 50.761758 31.094901 
L 50.761758 31.341491 
L 51.386279 31.341491 
L 51.430888 32.08455 
L 52.0108 32.08455 
L 52.0108 32.333356 
L 52.724539 32.333356 
L 52.724539 32.583299 
L 52.858365 32.583299 
L 52.947582 33.333128 
L 56.159404 33.333128 
L 56.159404 33.840088 
L 56.560882 33.840088 
L 56.650099 34.347048 
L 57.006969 34.347048 
L 57.051577 34.856457 
L 57.319229 34.856457 
L 57.319229 35.111161 
L 57.720707 35.111161 
L 57.720707 35.365866 
L 58.300619 35.365866 
L 58.300619 35.621831 
L 60.308008 35.621831 
L 60.352617 36.146821 
L 61.824702 36.146821 
L 61.824702 36.680057 
L 62.806092 36.680057 
L 62.806092 36.949527 
L 63.162961 36.949527 
L 63.162961 37.218996 
L 63.742874 37.218996 
L 63.742874 37.757935 
L 63.965917 37.757935 
L 63.965917 38.027405 
L 64.322786 38.027405 
L 64.322786 38.296875 
L 65.794871 38.296875 
L 65.884089 39.105283 
L 66.419392 39.105283 
L 66.419392 39.377815 
L 66.910087 39.377815 
L 66.910087 39.651913 
L 68.069912 39.651913 
L 68.069912 39.926011 
L 68.203738 39.926011 
L 68.203738 40.200109 
L 68.47139 40.200109 
L 68.47139 40.475819 
L 68.739042 40.475819 
L 68.739042 40.75153 
L 69.051302 40.75153 
L 69.051302 41.02724 
L 70.166518 41.02724 
L 70.166518 41.304611 
L 70.701822 41.304611 
L 70.701822 41.581982 
L 70.924865 41.581982 
L 71.014083 42.414096 
L 72.887646 42.414096 
L 72.887646 42.693201 
L 73.110689 42.693201 
L 73.110689 42.972306 
L 73.73521 42.972306 
L 73.73521 43.537672 
L 74.002862 43.537672 
L 74.04747 44.106733 
L 76.991641 44.106733 
L 76.991641 44.397032 
L 77.660771 44.397032 
L 77.660771 44.68733 
L 80.203463 44.68733 
L 80.248072 45.280106 
L 80.471115 45.280106 
L 80.471115 45.576495 
L 81.095636 45.576495 
L 81.095636 45.872883 
L 82.077026 45.872883 
L 82.077026 46.17581 
L 83.727546 46.17581 
L 83.727546 46.478736 
L 85.065805 46.478736 
L 85.065805 46.78394 
L 86.404065 46.78394 
L 86.404065 47.091474 
L 86.760934 47.091474 
L 86.760934 47.399007 
L 90.285017 47.399007 
L 90.285017 47.706541 
L 91.17719 47.706541 
L 91.17719 48.326452 
L 92.693883 48.326452 
L 92.693883 48.638907 
L 92.783101 48.638907 
L 93.006144 48.638907 
L 93.006144 48.953923 
L 94.165969 48.953923 
L 94.165969 49.274233 
L 94.745881 49.274233 
L 94.745881 49.6029 
L 95.415011 49.6029 
L 95.415011 49.931566 
L 98.136138 49.931566 
L 98.136138 50.278662 
L 101.437178 50.278662 
L 101.437178 50.646584 
L 102.195525 50.646584 
L 102.195525 51.014506 
L 102.373959 51.014506 
L 102.373959 51.382428 
L 103.355349 51.382428 
L 103.355349 51.758096 
L 103.801436 51.758096 
L 103.801436 52.509432 
L 104.024479 52.509432 
L 104.069088 53.260767 
L 104.649 53.260767 
L 104.649 53.636435 
L 105.451956 53.636435 
L 105.451956 54.012103 
L 105.63039 54.012103 
L 105.63039 54.392089 
L 107.191693 54.392089 
L 107.191693 54.776545 
L 107.994648 54.776545 
L 107.994648 55.161001 
L 108.440735 55.161001 
L 108.440735 55.545457 
L 116.82716 55.545457 
L 116.871768 56.446183 
L 119.146809 56.446183 
L 119.146809 56.917332 
L 119.860547 56.917332 
L 119.860547 57.388481 
L 120.128199 57.388481 
L 120.128199 57.85963 
L 125.436628 57.85963 
L 125.436628 58.372108 
L 127.220974 58.372108 
L 127.220974 58.903566 
L 129.228363 58.903566 
L 129.228363 59.478409 
L 130.878882 59.478409 
L 130.878882 60.078245 
L 131.503403 60.078245 
L 131.503403 60.691714 
L 132.172533 60.691714 
L 132.172533 61.319789 
L 132.217142 61.319789 
L 134.090705 61.319789 
L 134.090705 61.997449 
L 137.971657 61.997449 
L 137.971657 62.693933 
L 139.443742 62.693933 
L 139.443742 63.410901 
L 147.562515 63.410901 
L 147.562515 64.2559 
L 154.29842 64.2559 
L 154.29842 65.206524 
L 154.387638 65.206524 
L 154.833724 65.206524 
L 154.833724 66.200357 
L 190.074553 66.200357 
L 190.074553 68.519303 
L 192.79568 68.519303 
L 192.79568 70.838248 
L 212.958787 70.838248 
L 212.958787 70.838248 
" clip-path="url(#p9dd033b176)" style="fill: none; stroke: #e69f00; stroke-width: 1.2; stroke-linecap: square"/>
   </g>
   <g id="patch_3">
    <path d="M 31.535433 87.070866 
L 31.535433 17.688189 
" style="fill: none; stroke: #000000; stroke-width: 0.75; stroke-linejoin: miter; stroke-linecap: square"/>
   </g>
   <g id="patch_4">
    <path d="M 31.535433 87.070866 
L 227.055118 87.070866 
" style="fill: none; stroke: #000000; stroke-width: 0.75; stroke-linejoin: miter; stroke-linecap: square"/>
   </g>
   <g id="text_5">
    <text style="font-size: 8px; font-family: 'Nimbus Sans', 'DejaVu Sans'" transform="translate(92.288401 2.945439)">TCGA-KIRC (n=604)</text>
    <text style="font-size: 8px; font-family: 'Nimbus Sans', 'DejaVu Sans'" transform="translate(93.390276 11.688189)">log-rank p = 2.8e-20</text>
   </g>
   <g id="legend_1">
    <g id="line2d_11">
     <path d="M 37.385433 68.123366 
L 41.285433 68.123366 
L 41.285433 68.123366 
L 45.185433 68.123366 
L 45.185433 68.123366 
" style="fill: none; stroke: #0072b2; stroke-width: 1.2; stroke-linecap: square"/>
    </g>
    <g id="text_6">
     <text style="font-size: 6.5px; font-family: 'Nimbus Sans', 'DejaVu Sans'; text-anchor: start" x="50.385433" y="70.398366" transform="rotate(-0 50.385433 70.398366)">low risk</text>
    </g>
    <g id="line2d_12">
     <path d="M 37.385433 77.529069 
L 41.285433 77.529069 
L 41.285433 77.529069 
L 45.185433 77.529069 
L 45.185433 77.529069 
" style="fill: none; stroke: #e69f00; stroke-width: 1.2; stroke-linecap: square"/>
    </g>
    <g id="text_7">
     <text style="font-size: 6.5px; font-family: 'Nimbus Sans', 'DejaVu Sans'; text-anchor: start" x="50.385433" y="79.804069" transform="rotate(-0 50.385433 79.804069)">high risk</text>
    </g>
   </g>
  </g>
  <g id="axes_2">
   <g id="patch_5">
    <path d="M 31.535433 131.187402 
L 227.055118 131.187402 
L 227.055118 117.310866 
L 31.535433 117.310866 
z
" style="fill: #ffffff"/>
   </g>
   <g id="matplotlib.axis_3">
    <g id="xtick_6">
     <g id="line2d_13">
      <g>
       <use xlink:href="#mca8ec5b209" x="31.535433" y="131.187402" style="stroke: #000000; stroke-width: 0.75"/>
      </g>
     </g>
     <g id="text_8">
      <text style="font-size: 7px; font-family: 'Nimbus Sans', 'DejaVu Sans'; text-anchor: middle" x="31.535433" y="142.290839" transform="rotate(-0 31.535433 142.290839)">0</text>
     </g>
    </g>
    <g id="xtick_7">
     <g id="line2d_14">
      <g>
       <use xlink:href="#mca8ec5b209" x="80.415354" y="131.187402" style="stroke: #000000; stroke-width: 0.75"/>
      </g>
     </g>
     <g id="text_9">
      <text style="font-size: 7px; font-family: 'Nimbus Sans', 'DejaVu Sans'; text-anchor: middle" x="80.415354" y="142.290839" transform="rotate(-0 80.415354 142.290839)">3</text>
     </g>
    </g>
    <g id="xtick_8">
     <g id="line2d_15">
      <g>
       <use xlink:href="#mca8ec5b209" x="129.295276" y="131.187402" style="stroke: #000000; stroke-width: 0.75"/>
      </g>
     </g>
     <g id="text_10">
      <text style="font-size: 7px; font-family: 'Nimbus Sans', 'DejaVu Sans'; text-anchor: middle" x="129.295276" y="142.290839" transform="rotate(-0 129.295276 142.290839)">6</text>
     </g>
    </g>
    <g id="xtick_9">
     <g id="line2d_16">
      <g>
       <use xlink:href="#mca8ec5b209" x="178.175197" y="131.187402" style="stroke: #000000; stroke-width: 0.75"/>
      </g>
     </g>
     <g id="text_11">
      <text style="font-size: 7px; font-family: 'Nimbus Sans', 'DejaVu Sans'; text-anchor: middle" x="178.175197" y="142.290839" transform="rotate(-0 178.175197 142.290839)">9</text>
     </g>
    </g>
    <g id="xtick_10">
     <g id="line2d_17">
      <g>
       <use xlink:href="#mca8ec5b209" x="227.055118" y="131.187402" style="stroke: #000000; stroke-width: 0.75"/>
      </g>
     </g>
     <g id="text_12">
      <text style="font-size: 7px; font-family: 'Nimbus Sans', 'DejaVu Sans'; text-anchor: middle" x="227.055118" y="142.290839" transform="rotate(-0 227.055118 142.290839)">12</text>
     </g>
    </g>
    <g id="text_13">
     <text style="font-size: 8px; font-family: 'Nimbus Sans', 'DejaVu Sans'; text-anchor: middle" x="129.295276" y="153.64912" transform="rotate(-0 129.295276 153.64912)">years</text>
    </g>
   </g>
   <g id="matplotlib.axis_4"/>
   <g id="text_14">
    <text style="font-weight: 700; font-size: 6px; font-family: 'Nimbus Sans', 'DejaVu Sans'; text-anchor: end; fill: #e69f00" x="25.669843" y="122.89147" transform="rotate(-0 25.669843 122.89147)">high risk</text>
   </g>
   <g id="text_15">
    <text style="font-size: 6px; font-family: 'Nimbus Sans', 'DejaVu Sans'; text-anchor: start; fill: #e69f00" x="31.535433" y="122.89147" transform="rotate(-0 31.535433 122.89147)">302</text>
   </g>
   <g id="text_16">
    <text style="font-size: 6px; font-family: 'Nimbus Sans', 'DejaVu Sans'; text-anchor: middle; fill: #e69f00" x="80.415354" y="122.89147" transform="rotate(-0 80.415354 122.89147)">141</text>
   </g>
   <g id="text_17">
    <text style="font-size: 6px; font-family: 'Nimbus Sans', 'DejaVu Sans'; text-anchor: middle; fill: #e69f00" x="129.295276" y="122.89147" transform="rotate(-0 129.295276 122.89147)">48</text>
   </g>
   <g id="text_18">
    <text style="font-size: 6px; font-family: 'Nimbus Sans', 'DejaVu Sans'; text-anchor: middle; fill: #e69f00" x="178.175197" y="122.89147" transform="rotate(-0 178.175197 122.89147)">13</text>
   </g>
   <g id="text_19">
    <text style="font-size: 6px; font-family: 'Nimbus Sans', 'DejaVu Sans'; text-anchor: middle; fill: #e69f00" x="227.055118" y="122.89147" transform="rotate(-0 227.055118 122.89147)">0</text>
   </g>
   <g id="text_20">
    <text style="font-weight: 700; font-size: 6px; font-family: 'Nimbus Sans', 'DejaVu Sans'; text-anchor: end; fill: #0072b2" x="25.669843" y="128.67336" transform="rotate(-0 25.669843 128.67336)">low risk</text>
   </g>
   <g id="text_21">
    <text style="font-size: 6px; font-family: 'Nimbus Sans', 'DejaVu Sans'; text-anchor: start; fill: #0072b2" x="31.535433" y="128.67336" transform="rotate(-0 31.535433 128.67336)">302</text>
   </g>
   <g id="text_22">
    <text style="font-size: 6px; font-family: 'Nimbus Sans', 'DejaVu Sans'; text-anchor: middle; fill: #0072b2" x="80.415354" y="128.67336" transform="rotate(-0 80.415354 128.67336)">195</text>
   </g>
   <g id="text_23">
    <text style="font-size: 6px; font-family: 'Nimbus Sans', 'DejaVu Sans'; text-anchor: middle; fill: #0072b2" x="129.295276" y="128.67336" transform="rotate(-0 129.295276 128.67336)">82</text>
   </g>
   <g id="text_24">
    <text style="font-size: 6px; font-family: 'Nimbus Sans', 'DejaVu Sans'; text-anchor: middle; fill: #0072b2" x="178.175197" y="128.67336" transform="rotate(-0 178.175197 128.67336)">25</text>
   </g>
   <g id="text_25">
    <text style="font-size: 6px; font-family: 'Nimbus Sans', 'DejaVu Sans'; text-anchor: middle; fill: #0072b2" x="227.055118" y="128.67336" transform="rotate(-0 227.055118 128.67336)">2</text>
   </g>
   <g id="text_26">
    <text style="font-weight: 700; font-size: 6px; font-family: 'Nimbus Sans', 'DejaVu Sans'; text-anchor: start; fill: #555555" x="31.535433" y="114.6154" transform="rotate(-0 31.535433 114.6154)">Number at risk</text>
   </g>
  </g>
 </g>
 <defs>
  <clipPath id="p9dd033b176">
   <rect x="31.535433" y="17.688189" width="195.519685" height="69.382677"/>
  </clipPath>
 </defs>
</svg>
